<?xml version="1.0" encoding="UTF-8" standalone="no"?>
<!-- Created with Inkscape (http://www.inkscape.org/) -->
<svg xmlns:dc="http://purl.org/dc/elements/1.1/" xmlns:cc="http://creativecommons.org/ns#" xmlns:rdf="http://www.w3.org/1999/02/22-rdf-syntax-ns#" xmlns:svg="http://www.w3.org/2000/svg" xmlns="http://www.w3.org/2000/svg" xmlns:sodipodi="http://sodipodi.sourceforge.net/DTD/sodipodi-0.dtd" xmlns:inkscape="http://www.inkscape.org/namespaces/inkscape" width="60.444443mm" height="60.444443mm" viewBox="0 0 214.17322 214.17322" id="svg4327" version="1.1" inkscape:version="0.91 r13725" sodipodi:docname="bitcoin.svg">
  <defs id="defs4329"/>
  <sodipodi:namedview id="base" pagecolor="#ffffff" bordercolor="#666666" borderopacity="1.0" inkscape:pageopacity="0.0" inkscape:pageshadow="2" inkscape:zoom="0.7" inkscape:cx="-56.51327" inkscape:cy="49.174819" inkscape:document-units="px" inkscape:current-layer="layer1" showgrid="false" fit-margin-top="2" fit-margin-left="2" fit-margin-right="2" fit-margin-bottom="2" inkscape:window-width="1268" inkscape:window-height="405" inkscape:window-x="218" inkscape:window-y="390" inkscape:window-maximized="0"/>
  <metadata id="metadata4332">
    <rdf:RDF>
      <cc:Work rdf:about="">
        <dc:format>image/svg+xml</dc:format>
        <dc:type rdf:resource="http://purl.org/dc/dcmitype/StillImage"/>
        <dc:title/>
      </cc:Work>
    </rdf:RDF>
  </metadata>
  <g inkscape:label="Layer 1" inkscape:groupmode="layer" id="layer1" transform="translate(-264.96063,-419.09449)">
    <path style="fill:#000000" d="m 272.04724,602.04317 0,-24.13793 24.13793,0 24.13793,0 0,24.13793 0,24.13793 -24.13793,0 -24.13793,0 0,-24.13793 z m 41.37931,0 0,-17.24138 -17.24138,0 -17.24138,0 0,17.24138 0,17.24138 17.24138,0 17.24138,0 0,-17.24138 z m -27.58621,0 0,-10.34483 10.34483,0 10.34483,0 0,10.34483 0,10.34483 -10.34483,0 -10.34483,0 0,-10.34483 z m 41.37931,17.24138 0,-6.89655 3.44828,0 3.44828,0 0,-3.44828 0,-3.44828 -3.44828,0 -3.44828,0 0,-3.44827 0,-3.44828 3.44828,0 3.44828,0 0,3.44828 0,3.44827 6.89655,0 6.89655,0 0,-6.89655 0,-6.89655 -3.44828,0 -3.44827,0 0,-3.44827 0,-3.44828 -6.89655,0 -6.89656,0 0,-6.89655 0,-6.89655 -6.89655,0 -6.89655,0 0,-3.44828 0,-3.44828 6.89655,0 6.89655,0 0,-3.44827 0,-3.44828 -6.89655,0 -6.89655,0 0,-3.44827 0,-3.44828 6.89655,0 6.89655,0 0,-3.44827 0,-3.44828 -6.89655,0 -6.89655,0 0,-3.44828 0,-3.44827 -6.89655,0 -6.89655,0 0,3.44827 0,3.44828 3.44827,0 3.44828,0 0,6.89655 0,6.89655 -6.89655,0 -6.89655,0 0,-3.44827 0,-3.44828 3.44827,0 3.44828,0 0,-3.44827 0,-3.44828 -6.89655,0 -6.89656,0 0,-6.89655 0,-6.89655 -3.44827,0 -3.44828,0 0,-3.44828 0,-3.44828 -3.44827,0 -3.44828,0 0,-3.44827 0,-3.44828 3.44828,0 3.44827,0 0,3.44828 0,3.44827 20.68966,0 20.68965,0 0,-3.44827 0,-3.44828 -3.44827,0 -3.44828,0 0,-3.44827 0,-3.44828 10.34483,0 10.34483,0 0,3.44828 0,3.44827 -3.44828,0 -3.44828,0 0,3.44828 0,3.44827 6.89656,0 6.89655,0 0,-3.44827 0,-3.44828 6.89655,0 6.89655,0 0,-3.44827 0,-3.44828 3.44828,0 3.44827,0 0,-6.89655 0,-6.89655 3.44828,0 3.44828,0 0,-3.44828 0,-3.44827 -3.44828,0 -3.44828,0 0,-3.44828 0,-3.44828 -3.44827,0 -3.44828,0 0,-6.89655 0,-6.89655 -3.44828,0 -3.44827,0 0,3.44828 0,3.44827 -3.44828,0 -3.44827,0 0,3.44828 0,3.44827 3.44827,0 3.44828,0 0,3.44828 0,3.44828 3.44827,0 3.44828,0 0,3.44827 0,3.44828 -3.44828,0 -3.44827,0 0,3.44827 0,3.44828 -6.89655,0 -6.89655,0 0,-3.44828 0,-3.44827 -3.44828,0 -3.44828,0 0,3.44827 0,3.44828 -6.89655,0 -6.89655,0 0,-3.44828 0,-3.44827 -3.44828,0 -3.44827,0 0,3.44827 0,3.44828 -6.89655,0 -6.89655,0 0,-3.44828 0,-3.44827 -10.34483,0 -10.34483,0 0,-6.89655 0,-6.89656 6.89655,0 6.89655,0 0,3.44828 0,3.44828 3.44828,0 3.44828,0 0,-3.44828 0,-3.44828 3.44827,0 3.44828,0 0,3.44828 0,3.44828 6.89655,0 6.89655,0 0,-3.44828 0,-3.44828 6.89655,0 6.89655,0 0,-13.7931 0,-13.7931 3.44828,0 3.44828,0 0,-3.44828 0,-3.44827 -3.44828,0 -3.44828,0 0,-6.89656 0,-6.89655 3.44828,0 3.44828,0 0,-3.44827 0,-3.44828 3.44827,0 3.44828,0 0,3.44828 0,3.44827 -3.44828,0 -3.44827,0 0,3.44828 0,3.44827 6.89655,0 6.89655,0 0,-3.44827 0,-3.44828 3.44827,0 3.44828,0 0,-3.44827 0,-3.44828 3.44828,0 3.44827,0 0,3.44828 0,3.44827 3.44828,0 3.44828,0 0,3.44828 0,3.44827 3.44827,0 3.44828,0 0,-6.89655 0,-6.89655 17.24138,0 17.24138,0 0,3.44828 0,3.44827 -3.44828,0 -3.44828,0 0,3.44828 0,3.44827 3.44828,0 3.44828,0 0,6.89656 0,6.89655 -3.44828,0 -3.44828,0 0,3.44827 0,3.44828 3.44828,0 3.44828,0 0,3.44827 0,3.44828 3.44827,0 3.44828,0 0,3.44828 0,3.44827 -3.44828,0 -3.44827,0 0,-3.44827 0,-3.44828 -3.44828,0 -3.44828,0 0,3.44828 0,3.44827 -3.44827,0 -3.44828,0 0,6.89655 0,6.89656 13.79311,0 13.7931,0 0,-3.44828 0,-3.44828 10.34483,0 10.34482,0 0,3.44828 0,3.44828 3.44828,0 3.44828,0 0,-3.44828 0,-3.44828 6.89655,0 6.89655,0 0,3.44828 0,3.44828 3.44828,0 3.44827,0 0,3.44827 0,3.44828 -3.44827,0 -3.44828,0 0,6.89655 0,6.89655 3.44828,0 3.44827,0 0,3.44828 0,3.44827 -6.89655,0 -6.89655,0 0,3.44828 0,3.44827 6.89655,0 6.89655,0 0,3.44828 0,3.44828 -17.24138,0 -17.24138,0 0,-3.44828 0,-3.44828 3.44828,0 3.44827,0 0,-3.44827 0,-3.44828 6.89656,0 6.89655,0 0,-3.44827 0,-3.44828 -3.44828,0 -3.44827,0 0,-3.44828 0,-3.44827 3.44827,0 3.44828,0 0,-6.89655 0,-6.89655 -3.44828,0 -3.44827,0 0,3.44827 0,3.44828 -3.44828,0 -3.44828,0 0,6.89655 0,6.89655 -3.44827,0 -3.44828,0 0,3.44828 0,3.44827 -3.44827,0 -3.44828,0 0,6.89655 0,6.89656 -3.44827,0 -3.44828,0 0,-6.89656 0,-6.89655 -3.44828,0 -3.44827,0 0,3.44828 0,3.44827 -3.44828,0 -3.44827,0 0,-10.34482 0,-10.34483 -3.44828,0 -3.44828,0 0,3.44827 0,3.44828 -3.44827,0 -3.44828,0 0,3.44828 0,3.44827 3.44828,0 3.44827,0 0,6.89655 0,6.89656 -3.44827,0 -3.44828,0 0,3.44827 0,3.44828 6.89655,0 6.89656,0 0,3.44827 0,3.44828 3.44827,0 3.44828,0 0,6.89655 0,6.89655 3.44827,0 3.44828,0 0,-6.89655 0,-6.89655 3.44828,0 3.44827,0 0,-3.44828 0,-3.44827 3.44828,0 3.44827,0 0,3.44827 0,3.44828 -3.44827,0 -3.44828,0 0,3.44828 0,3.44827 6.89655,0 6.89655,0 0,-6.89655 0,-6.89655 3.44828,0 3.44828,0 0,6.89655 0,6.89655 3.44827,0 3.44828,0 0,-3.44827 0,-3.44828 3.44827,0 3.44828,0 0,-3.44828 0,-3.44827 3.44828,0 3.44827,0 0,10.34483 0,10.34482 -3.44827,0 -3.44828,0 0,3.44828 0,3.44827 3.44828,0 3.44827,0 0,6.89656 0,6.89655 -3.44827,0 -3.44828,0 0,3.44827 0,3.44828 3.44828,0 3.44827,0 0,3.44828 0,3.44827 -10.34483,0 -10.34482,0 0,3.44828 0,3.44827 6.89655,0 6.89655,0 0,3.44828 0,3.44827 3.44828,0 3.44827,0 0,3.44828 0,3.44828 -3.44827,0 -3.44828,0 0,6.89655 0,6.89655 -3.44828,0 -3.44827,0 0,-6.89655 0,-6.89655 -3.44828,0 -3.44827,0 0,3.44827 0,3.44828 -3.44828,0 -3.44828,0 0,3.44827 0,3.44828 -3.44827,0 -3.44828,0 0,-3.44828 0,-3.44827 3.44828,0 3.44827,0 0,-3.44828 0,-3.44827 -6.89655,0 -6.89655,0 0,-3.44828 0,-3.44828 -3.44827,0 -3.44828,0 0,6.89656 0,6.89655 3.44828,0 3.44827,0 0,3.44827 0,3.44828 -10.34483,0 -10.34482,0 0,-3.44828 0,-3.44827 3.44827,0 3.44828,0 0,-6.89655 0,-6.89656 3.44827,0 3.44828,0 0,-3.44827 0,-3.44828 -6.89655,0 -6.89655,0 0,-27.5862 0,-27.58621 -3.44828,0 -3.44828,0 0,3.44828 0,3.44827 -3.44827,0 -3.44828,0 0,-3.44827 0,-3.44828 -3.44827,0 -3.44828,0 0,6.89655 0,6.89655 6.89655,0 6.89655,0 0,3.44828 0,3.44827 -6.89655,0 -6.89655,0 0,6.89656 0,6.89655 -3.44828,0 -3.44827,0 0,-3.44828 0,-3.44827 -3.44828,0 -3.44827,0 0,13.7931 0,13.7931 -3.44828,0 -3.44827,0 0,3.44828 0,3.44827 3.44827,0 3.44828,0 0,3.44828 0,3.44828 3.44827,0 3.44828,0 0,3.44827 0,3.44828 3.44827,0 3.44828,0 0,-6.89655 0,-6.89656 3.44828,0 3.44827,0 0,-3.44827 0,-3.44828 -6.89655,0 -6.89655,0 0,-6.89655 0,-6.89655 3.44827,0 3.44828,0 0,3.44828 0,3.44827 3.44828,0 3.44827,0 0,-3.44827 0,-3.44828 3.44828,0 3.44827,0 0,3.44828 0,3.44827 -3.44827,0 -3.44828,0 0,3.44828 0,3.44827 3.44828,0 3.44827,0 0,10.34483 0,10.34483 -3.44827,0 -3.44828,0 0,3.44827 0,3.44828 -10.34483,0 -10.34482,0 0,-6.89655 0,-6.89655 -6.89655,0 -6.89656,0 0,-6.89656 0,-6.89655 3.44828,0 3.44828,0 0,-3.44827 0,-3.44828 -6.89656,0 -6.89655,0 0,13.7931 0,13.79311 6.89655,0 6.89656,0 0,3.44827 0,3.44828 -6.89656,0 -6.89655,0 0,-3.44828 0,-3.44827 -3.44828,0 -3.44827,0 0,3.44827 0,3.44828 -3.44828,0 -3.44827,0 0,-6.89655 0,-6.89655 -3.44828,0 -3.44827,0 0,6.89655 0,6.89655 -3.44828,0 -3.44828,0 0,-6.89655 z m 124.13794,-13.79311 0,-6.89655 -3.44828,0 -3.44828,0 0,6.89655 0,6.89656 3.44828,0 3.44828,0 0,-6.89656 z m 13.7931,3.44828 0,-3.44828 -3.44828,0 -3.44827,0 0,3.44828 0,3.44828 3.44827,0 3.44828,0 0,-3.44828 z m -27.58621,-6.89655 0,-3.44828 -3.44827,0 -3.44828,0 0,3.44828 0,3.44827 3.44828,0 3.44827,0 0,-3.44827 z m 0,-20.68966 0,-10.34482 -10.34482,0 -10.34483,0 0,10.34482 0,10.34483 10.34483,0 10.34482,0 0,-10.34483 z m -13.7931,0 0,-3.44827 3.44828,0 3.44827,0 0,3.44827 0,3.44828 -3.44827,0 -3.44828,0 0,-3.44828 z m -75.86207,-6.89655 0,-10.34483 -10.34483,0 -10.34483,0 0,3.44828 0,3.44828 3.44828,0 3.44828,0 0,3.44827 0,3.44828 3.44827,0 3.44828,0 0,3.44827 0,3.44828 3.44827,0 3.44828,0 0,-10.34483 z m 110.34483,6.89655 0,-3.44827 -3.44828,0 -3.44827,0 0,-6.89655 0,-6.89656 3.44827,0 3.44828,0 0,3.44828 0,3.44828 3.44827,0 3.44828,0 0,-3.44828 0,-3.44828 -3.44828,0 -3.44827,0 0,-3.44827 0,-3.44828 -3.44828,0 -3.44827,0 0,3.44828 0,3.44827 -3.44828,0 -3.44828,0 0,-3.44827 0,-3.44828 -10.34482,0 -10.34483,0 0,3.44828 0,3.44827 10.34483,0 10.34482,0 0,6.89656 0,6.89655 3.44828,0 3.44828,0 0,3.44827 0,3.44828 3.44827,0 3.44828,0 0,-3.44828 z m -89.65517,-13.7931 0,-3.44828 6.89655,0 6.89655,0 0,-6.89655 0,-6.89655 -3.44828,0 -3.44827,0 0,-10.34483 0,-10.34482 3.44827,0 3.44828,0 0,-3.44828 0,-3.44828 3.44827,0 3.44828,0 0,-3.44827 0,-3.44828 -6.89655,0 -6.89655,0 0,-3.44827 0,-3.44828 -3.44828,0 -3.44827,0 0,3.44828 0,3.44827 -3.44828,0 -3.44828,0 0,6.89655 0,6.89656 3.44828,0 3.44828,0 0,10.34482 0,10.34483 -3.44828,0 -3.44828,0 0,-6.89655 0,-6.89655 -3.44827,0 -3.44828,0 0,-6.89655 0,-6.89656 -6.89655,0 -6.89655,0 0,3.44828 0,3.44828 -6.89655,0 -6.89656,0 0,-3.44828 0,-3.44828 -3.44827,0 -3.44828,0 0,3.44828 0,3.44828 -3.44827,0 -3.44828,0 0,3.44827 0,3.44828 3.44828,0 3.44827,0 0,-3.44828 0,-3.44827 3.44828,0 3.44827,0 0,6.89655 0,6.89655 3.44828,0 3.44828,0 0,-3.44828 0,-3.44827 3.44827,0 3.44828,0 0,-3.44828 0,-3.44827 3.44827,0 3.44828,0 0,3.44827 0,3.44828 3.44827,0 3.44828,0 0,3.44827 0,3.44828 -3.44828,0 -3.44827,0 0,6.89655 0,6.89655 3.44827,0 3.44828,0 0,3.44828 0,3.44827 3.44828,0 3.44827,0 0,3.44828 0,3.44828 3.44828,0 3.44828,0 0,-3.44828 z m 0,-13.7931 0,-3.44828 3.44827,0 3.44828,0 0,3.44828 0,3.44827 -3.44828,0 -3.44827,0 0,-3.44827 z m 0,-34.48276 0,-3.44828 3.44827,0 3.44828,0 0,3.44828 0,3.44827 -3.44828,0 -3.44827,0 0,-3.44827 z m -34.48276,34.48276 0,-3.44828 -3.44828,0 -3.44828,0 0,3.44828 0,3.44827 3.44828,0 3.44828,0 0,-3.44827 z m 55.17241,-13.79311 0,-3.44827 -3.44828,0 -3.44827,0 0,3.44827 0,3.44828 3.44827,0 3.44828,0 0,-3.44828 z m 6.89655,-34.48276 0,-3.44827 3.44828,0 3.44827,0 0,-3.44828 0,-3.44827 -6.89655,0 -6.89655,0 0,6.89655 0,6.89655 3.44828,0 3.44827,0 0,-3.44828 z m 27.58621,0 0,-3.44827 3.44828,0 3.44827,0 0,3.44827 0,3.44828 3.44828,0 3.44827,0 0,-6.89655 0,-6.89655 3.44828,0 3.44827,0 0,-3.44828 0,-3.44827 -10.34482,0 -10.34483,0 0,6.89655 0,6.89655 -3.44828,0 -3.44827,0 0,3.44827 0,3.44828 3.44827,0 3.44828,0 0,-3.44828 z m -41.37931,-6.89655 0,-3.44827 -3.44828,0 -3.44827,0 0,3.44827 0,3.44828 3.44827,0 3.44828,0 0,-3.44828 z m -55.17242,-6.89655 0,-3.44827 3.44828,0 3.44828,0 0,3.44827 0,3.44828 3.44827,0 3.44828,0 0,-6.89655 0,-6.89656 -6.89655,0 -6.89656,0 0,3.44828 0,3.44828 -6.89655,0 -6.89655,0 0,3.44827 0,3.44828 6.89655,0 6.89655,0 0,-3.44828 z m 55.17242,-6.89655 0,-3.44828 -6.89655,0 -6.89655,0 0,-10.34482 0,-10.34483 -3.44828,0 -3.44828,0 0,-3.44828 0,-3.44827 3.44828,0 3.44828,0 0,-6.89655 0,-6.89656 -3.44828,0 -3.44828,0 0,3.44828 0,3.44828 -3.44827,0 -3.44828,0 0,3.44827 0,3.44828 -10.34483,0 -10.34482,0 0,3.44827 0,3.44828 3.44827,0 3.44828,0 0,3.44827 0,3.44828 -3.44828,0 -3.44827,0 0,3.44828 0,3.44827 3.44827,0 3.44828,0 0,-3.44827 0,-3.44828 3.44827,0 3.44828,0 0,-3.44828 0,-3.44827 3.44827,0 3.44828,0 0,3.44827 0,3.44828 3.44828,0 3.44827,0 0,6.89655 0,6.89655 3.44828,0 3.44828,0 0,3.44828 0,3.44828 6.89655,0 6.89655,0 0,-3.44828 z m 0,-13.7931 0,-3.44828 -3.44828,0 -3.44827,0 0,3.44828 0,3.44827 3.44827,0 3.44828,0 0,-3.44827 z m 13.7931,-3.44828 0,-6.89655 -3.44827,0 -3.44828,0 0,6.89655 0,6.89655 3.44828,0 3.44827,0 0,-6.89655 z m -6.89655,-24.13793 0,-10.34483 -3.44828,0 -3.44827,0 0,3.44828 0,3.44827 -3.44828,0 -3.44827,0 0,6.89656 0,6.89655 6.89655,0 6.89655,0 0,-10.34483 z m 13.7931,0 0,-3.44828 -3.44827,0 -3.44828,0 0,3.44828 0,3.44828 3.44828,0 3.44827,0 0,-3.44828 z m -131.03448,124.13793 0,-3.44828 3.44828,0 3.44827,0 0,3.44828 0,3.44828 -3.44827,0 -3.44828,0 0,-3.44828 z m 13.7931,0 0,-3.44828 6.89656,0 6.89655,0 0,3.44828 0,3.44828 -6.89655,0 -6.89656,0 0,-3.44828 z m -13.7931,-13.7931 0,-3.44828 3.44828,0 3.44827,0 0,3.44828 0,3.44827 -3.44827,0 -3.44828,0 0,-3.44827 z m 13.7931,-41.37931 0,-3.44828 -6.89655,0 -6.89655,0 0,-3.44828 0,-3.44827 6.89655,0 6.89655,0 0,3.44827 0,3.44828 3.44828,0 3.44828,0 0,3.44828 0,3.44827 -3.44828,0 -3.44828,0 0,-3.44827 z m -13.7931,-62.06897 0,-24.13793 24.13793,0 24.13793,0 0,24.13793 0,24.13793 -24.13793,0 -24.13793,0 0,-24.13793 z m 41.37931,0 0,-17.24138 -17.24138,0 -17.24138,0 0,17.24138 0,17.24138 17.24138,0 17.24138,0 0,-17.24138 z m -27.58621,0 0,-10.34483 10.34483,0 10.34483,0 0,10.34483 0,10.34483 -10.34483,0 -10.34483,0 0,-10.34483 z m 137.93104,0 0,-24.13793 24.13793,0 24.13793,0 0,24.13793 0,24.13793 -24.13793,0 -24.13793,0 0,-24.13793 z m 41.37931,0 0,-17.24138 -17.24138,0 -17.24138,0 0,17.24138 0,17.24138 17.24138,0 17.24138,0 0,-17.24138 z m -27.58621,0 0,-10.34483 10.34483,0 10.34483,0 0,10.34483 0,10.34483 -10.34483,0 -10.34483,0 0,-10.34483 z" id="path4150" inkscape:connector-curvature="0"/>
    <path d="m 469.05404,550.37232 c -13.35767,53.57133 -67.62283,86.17413 -121.20666,72.81489 -53.56196,-13.35612 -86.16856,-67.61807 -72.80463,-121.18627 13.35142,-53.57759 67.61658,-86.1835 121.18478,-72.82739 53.58071,13.35611 86.18418,67.62431 72.82651,121.19877 z" id="path4374" inkscape:connector-curvature="0" style="fill:#f7931a"/>
    <path d="m 419.63667,513.77344 c 1.99084,-13.30611 -8.14149,-20.45917 -21.99609,-25.23099 l 4.49423,-18.02482 -10.97305,-2.73435 -4.37546,17.54982 c -2.88468,-0.71874 -5.8475,-1.39686 -8.79156,-2.06873 l 4.40672,-17.66544 -10.9668,-2.73435 -4.49735,18.01857 c -2.38776,-0.54375 -4.73175,-1.08124 -7.007,-1.64686 l 0.0125,-0.0563 -15.13286,-3.77809 -2.91906,11.71864 c 0,0 8.14149,1.8656 7.9696,1.98123 4.44422,1.10936 5.24743,4.04995 5.11304,6.38118 l -5.11929,20.53417 c 0.30628,0.0781 0.7032,0.19062 1.14075,0.36562 -0.36567,-0.0906 -0.75633,-0.19062 -1.1595,-0.2875 l -7.17577,28.76533 c -0.5438,1.34999 -1.92208,3.37497 -5.02866,2.60623 0.10939,0.15937 -7.97585,-1.99061 -7.97585,-1.99061 l -5.44745,12.55925 14.27964,3.55934 c 2.65654,0.66562 5.25994,1.36249 7.82271,2.01873 l -4.54111,18.23106 10.96055,2.73435 4.49735,-18.03732 c 2.99407,0.8125 5.90063,1.56249 8.74468,2.26873 l -4.48173,17.95294 10.97305,2.73435 4.54111,-18.19669 c 18.71136,3.54059 32.78161,2.11248 38.70412,-14.80922 4.77238,-13.62487 -0.23753,-21.48416 -10.08232,-26.60911 7.16951,-1.65311 12.57008,-6.36868 14.01086,-16.10921 z m -25.07142,35.15277 c -3.39098,13.62486 -26.33405,6.25931 -33.77235,4.41245 l 6.02565,-24.15288 c 7.43829,1.85623 31.29083,5.5312 27.7467,19.74043 z m 3.39411,-35.34964 c -3.09408,12.39362 -22.18986,6.09681 -28.38427,4.55308 l 5.46308,-21.90603 c 6.19441,1.54373 26.14341,4.42495 22.92119,17.35295 z" id="path4376" inkscape:connector-curvature="0" style="fill:#ffffff"/>
    <path style="fill:#ff0000" d="m 375.46405,426.24458 0,6.82813 0,6.89648 3.44726,0 3.44922,0 0,-3.44727 0,-3.44921 3.44727,0 3.44922,0 0,10.3457 0,10.34375 -6.89649,0 -6.89648,0 0,-6.89649 0,-6.89648 -3.44922,0 -3.44727,0 0,6.89648 0,6.89649 -3.44922,0 -3.44726,0 0,3.44922 0,3.44922 3.44726,0 3.44922,0 0,10.34375 0,3.3457 2.86719,-11.48633 10.9668,2.73438 -0.48829,1.95898 0.44727,0 0,3.44727 0,3.44921 -2.16797,0 -1.7207,6.89649 3.88867,0 0,2.91992 c 1.48697,0.34731 2.96626,0.69885 4.42578,1.0625 l 2.71289,-10.87891 -0.24218,0 0,-6.89648 0,-6.89648 3.44726,0 3.44922,0 0,6.89648 0,1.4707 5.98047,1.49024 -0.98047,3.93554 1.89648,0 0,-3.44921 0,-3.44727 3.44922,0 3.44727,0 0,-3.44922 0,-3.44726 -3.44727,0 -3.44922,0 0,-3.44922 0,-3.44922 3.44922,0 3.44727,0 0,-6.89649 0,-6.89648 -3.44727,0 -3.44922,0 0,3.44922 0,3.44726 -3.44922,0 -3.44726,0 0,-3.44726 0,-3.44922 3.44726,0 3.44922,0 0,-3.44727 0,-3.44921 3.44922,0 1.9668,0 c -3.95144,-1.54129 -8.04505,-2.85125 -12.26953,-3.9043 -6.92897,-1.72759 -13.87018,-2.68014 -20.73242,-2.92383 z m 34.48242,41.3125 0,3.44727 0,3.44921 3.44922,0 3.44726,0 0,-3.44921 0,-3.44727 -3.44726,0 -3.44922,0 z m -41.37891,-27.58789 0,-3.44727 0,-3.44921 -3.44922,0 -3.44726,0 0,-3.44727 0,-2.91211 c -2.31676,0.24117 -4.6166,0.56636 -6.89649,0.9668 l 0,1.94531 0,3.44727 -3.44922,0 -3.44726,0 0,3.44921 0,3.44727 -6.89649,0 -6.89648,0 0,-3.44727 0,-2.8457 c -2.33898,0.96138 -4.64028,2.00747 -6.89648,3.14063 l 0,3.15234 0,6.89648 3.44726,0 3.44922,0 0,3.44922 0,3.44727 10.34375,0 10.3457,0 0,-3.44727 0,-3.44922 3.44727,0 3.44922,0 0,-3.44726 0,-3.44922 3.44726,0 3.44922,0 z m -34.48242,13.79297 -3.44922,0 -3.44726,0 0,13.79492 0,13.79297 6.89648,0 6.89648,0 0,-3.44922 0,-3.44727 -3.44921,0 -3.44727,0 0,-3.44921 0,-3.44727 3.44727,0 3.44921,0 0,-3.44922 0,-3.44726 -3.44921,0 -3.44727,0 0,-3.44922 0,-3.44922 z m 6.89648,13.79492 0,3.44727 0,3.44921 3.44727,0 3.44922,0 0,-3.44921 0,-3.44727 -3.44922,0 -3.44727,0 z m 6.89649,0 3.44726,0 3.44922,0 0,-3.44922 0,-3.44726 -3.44922,0 -3.44726,0 0,3.44726 0,3.44922 z m 6.89648,0 0,6.89648 0,3.43555 5.16797,1.29102 -0.0137,0.0566 c 0.5657,0.14063 1.16837,0.27247 1.74219,0.41015 l 0,-5.19336 0,-6.89648 -3.44922,0 -3.44727,0 z m -13.79297,13.79297 0,6.89648 0,6.89649 -3.44921,0 -3.44727,0 0,3.44726 0,3.44922 6.89648,0 6.89649,0 0,-3.44922 0,-3.44726 3.44726,0 3.44922,0 0,-1.76563 c -0.44828,-1.76591 -1.74926,-3.4854 -4.91406,-4.27539 0.17189,-0.11563 -7.9707,-1.98242 -7.9707,-1.98242 l 1.4375,-5.76953 -2.34571,0 z m -6.89648,13.79297 0,-3.44922 0,-3.44727 -3.44922,0 -3.44726,0 0,3.44727 0,3.44922 3.44726,0 3.44922,0 z m -6.89648,0 -6.89649,0 -6.89648,0 0,3.44726 0,3.44922 6.89648,0 6.89649,0 0,-3.44922 0,-3.44726 z m -13.79297,0 0,-3.44922 0,-3.44727 -6.89649,0 -6.89844,0 0,-3.44922 0,-3.44726 -3.44726,0 -3.44922,0 0,3.44726 0,3.44922 -3.44726,0 -3.44922,0 0,-3.44922 0,-3.44726 -3.16993,0 c -2.19911,4.39515 -4.0963,8.9987 -5.65625,13.79297 l 5.37891,0 10.34375,0 0,3.44726 0,3.44922 6.89648,0 6.89844,0 0,-3.44922 0,-3.44726 3.44727,0 3.44922,0 z m 0,-6.89649 6.89648,0 6.89649,0 0,-3.44922 0,-3.44726 -6.89649,0 -6.89648,0 0,3.44726 0,3.44922 z m 27.58593,-57.11328 c -1.8224,0.59705 -3.62888,1.24042 -5.41015,1.93946 l 1.96094,0 3.44921,0 0,-1.93946 z m 82.75782,9.46094 0,9.7207 0,24.13867 24.13867,0 9.68945,0 c -1.42718,-2.36074 -2.95475,-4.65955 -4.57226,-6.89648 l -5.11719,0 -17.24219,0 0,-17.24219 0,-5.15039 c -2.22561,-1.61164 -4.52428,-3.13761 -6.89648,-4.57031 z m -103.44727,0.0312 c -2.36056,1.4272 -4.65973,2.95475 -6.89648,4.57227 l 0,5.11718 0,17.24219 -17.24219,0 -5.14844,0 c -1.61147,2.22556 -3.13974,4.52434 -4.57226,6.89648 l 9.7207,0 24.13867,0 0,-24.13867 0,-9.68945 z m 117.24024,10.01172 0,10.02344 10.0039,0 c -3.0835,-3.56073 -6.42337,-6.9128 -10.0039,-10.02344 z m -131.03321,0.0195 c -3.56011,3.08322 -6.91138,6.42378 -10.02148,10.00391 l 10.02148,0 0,-10.00391 z m 117.24024,30.69336 0,3.44726 0,3.44922 10.3457,0 10.34375,0 0,-3.44922 0,-3.44726 -10.34375,0 -10.3457,0 z m 20.68945,6.89648 0,3.44727 0,3.44922 3.44922,0 3.44726,0 0,-3.44922 0,-3.44727 -3.44726,0 -3.44922,0 z m 6.89648,0 3.44922,0 3.44727,0 0,6.89649 0,6.89648 -3.44727,0 -3.44922,0 0,3.44727 0,3.44922 3.44922,0 3.44727,0 0,3.44726 0,3.44922 6.89648,0 6.36133,0 c -0.24125,-2.31704 -0.56626,-4.61632 -0.9668,-6.89648 l -1.94531,0 -3.44922,0 0,-6.89649 0,-6.89648 1.93946,0 c -1.55368,-4.74254 -3.45333,-9.35238 -5.6836,-13.79297 l -3.15234,0 -6.89649,0 0,3.44726 0,3.44922 z m 6.89649,27.58594 -6.89649,0 -6.89648,0 0,3.44727 0,3.44922 -3.44727,0 -3.44921,0 0,3.44726 0,3.44922 17.24218,0 17.17188,0 c 0.0818,-2.30859 0.0875,-4.60908 0.01,-6.89648 l -6.83789,0 -6.89648,0 0,-3.44922 0,-3.44727 z m -13.79297,-20.68945 -3.44727,0 -3.44921,0 0,6.89648 0,6.89649 3.44921,0 3.44727,0 0,-6.89649 0,-6.89648 z m -6.89648,13.79297 -3.44727,0 -3.44922,0 0,-3.44922 0,-3.44727 -3.44726,0 -3.44922,0 0,3.44727 0,3.44922 -3.44727,0 -0.47461,0 c 0.12744,1.51659 0.0746,3.12554 -0.18164,4.83789 -0.1059,0.71592 -0.23891,1.39618 -0.38672,2.05859 l 1.04297,0 3.44727,0 0,6.89649 0,6.89648 3.44922,0 3.44726,0 0,-6.89648 0,-6.89649 3.44922,0 3.44727,0 0,-3.44922 0,-3.44726 z m -13.79297,-6.89649 0,-6.89648 0,-6.89649 -13.79297,0 -12.23242,0 -0.0742,0.29493 c 9.07282,3.12487 16.54925,7.27157 20.07031,13.49804 l 2.58203,0 3.44727,0 z m -48.70118,-5.8164 -3.16992,12.71289 0.14649,0 3.44922,0 0,3.44726 0,3.44922 6.89648,0 6.89649,0 0,3.44727 0,1.58789 c 3.38862,-0.51501 6.28488,-1.97038 7.85937,-5.03516 l -0.96289,0 0,-3.44922 0,-3.44726 -3.44922,0 -3.44726,0 0,-6.89649 0,-1.74023 c -2.24948,-0.98807 -4.64389,-1.74928 -6.89649,-2.34766 l 0,0.63867 0,3.44922 -3.44922,0 -3.44726,0 0,-3.44922 0,-2.26953 c -0.12303,-0.0294 -0.31184,-0.0693 -0.42579,-0.0976 z m 21.11524,12.71289 1.93945,0 c -0.3212,-1.4618 -1.00033,-2.7494 -1.93945,-3.88477 l 0,0.43555 0,3.44922 z m -20.68945,6.89648 -3.44922,0 -1.86719,0 -0.57227,2.29688 c 1.39867,0.34856 3.50722,0.94055 5.88868,1.5039 l 0,-0.35351 0,-3.44727 z M 275.00116,502.0395 c -0.57241,2.29867 -1.05388,4.59859 -1.45899,6.89649 l 5.36914,0 6.89649,0 0,-3.44922 0,-3.44727 -6.89649,0 -3.91015,0 z m 10.80664,6.89649 0,3.44726 0,3.44922 3.44922,0 3.44726,0 0,-3.44922 0,-3.44726 -3.44726,0 -3.44922,0 z m 27.58789,0 0,3.44726 0,3.44922 3.44726,0 3.44922,0 0,3.44727 0,3.44922 3.44727,0 3.44922,0 0,-3.44922 0,-3.44727 3.44726,0 3.44922,0 0,-3.44922 0,-3.44726 -10.3457,0 -10.34375,0 z m 13.79297,13.79297 0,3.44726 0,3.44922 6.89648,0 6.89648,0 0,-3.44922 0,-3.44726 -6.89648,0 -6.89648,0 z m 13.79296,0 6.89649,0 0.30273,0 1.6543,-6.63477 c 0.40317,0.0969 0.79449,0.19846 1.16016,0.28906 -0.43755,-0.175 -0.83435,-0.28908 -1.14063,-0.36719 l 0.0449,-0.18359 -2.02148,0 -6.89649,0 0,3.44727 0,3.44922 z m 0,6.89648 0,3.44727 0,3.44921 -3.44921,0 -3.44727,0 0,3.44727 0,3.44922 -3.44922,0 -3.44726,0 0,3.44726 0,3.44922 0.36718,0 2.09961,-4.83984 c 0,0 8.084,2.15156 7.97461,1.99219 3.10658,0.76874 4.4855,-1.25743 5.0293,-2.60743 l 3.80078,-15.23437 -2.03125,0 -3.44727,0 z m -13.79296,20.68945 -6.89649,0 -6.89648,0 0,3.44727 0,3.44922 6.89648,0 4.27344,0 2.62305,-6.04883 0,-0.84766 z m 0,-6.89648 0,-6.89649 0,-6.89648 -3.44922,0 -3.44727,0 0,3.44727 0,3.44921 -3.44922,0 -3.44726,0 0,3.44727 0,3.44922 6.89648,0 6.89649,0 z m -13.79297,-6.89649 0,-3.44921 0,-3.44727 3.44726,0 3.44922,0 0,-3.44922 0,-3.44726 -20.69141,0 -20.68945,0 0,3.44726 0,3.44922 3.44922,0 3.44727,0 0,6.89648 0,6.89649 6.89648,0 6.89648,0 0,-3.44922 0,-3.44727 6.89844,0 6.89649,0 z m -13.79493,6.89649 0,3.44726 0,3.44922 -3.44726,0 -3.44922,0 0,3.44727 0,3.44922 6.89648,0 6.89844,0 0,-6.89649 0,-6.89648 -3.44922,0 -3.44922,0 z m -20.68945,-20.68945 0,-3.44922 0,-3.44727 -3.44726,0 -2.89063,0 c -0.24309,2.30569 -0.40863,4.60493 -0.49023,6.89649 l 3.38086,0 3.44726,0 z m 137.93164,-0.65235 c -0.13015,0.21819 -0.25534,0.4438 -0.39258,0.65235 l 0.39258,0 0,-0.65235 z m -50.13476,7.54883 -5.03711,20.18945 0,0.5 3.44726,0 3.44922,0 0,-10.3457 0,-10.34375 -1.85937,0 z m 1.85937,20.68945 0,3.44727 0,1.54297 c 2.16362,0.4948 4.51097,0.94621 6.89649,1.26172 l 0,-2.80469 0,-3.44727 -3.44922,0 -3.44727,0 z m 6.89649,0 3.44726,0 3.44922,0 0,6.63477 c 2.53565,-0.10818 4.90603,-0.55267 6.89649,-1.5 l 0,-5.13477 0,-6.89648 -3.44922,0 -3.44727,0 0,-3.44922 0,-3.44727 3.44727,0 2.88086,0 c -3.81395,-2.46892 -8.78247,-4.11388 -13.22461,-5.28515 l 0,8.73242 0,10.3457 z m 13.79297,-6.89648 3.44726,0 1.80078,0 c -0.79997,-2.6367 -2.72278,-4.78037 -5.24804,-6.52539 l 0,3.07617 0,3.44922 z m 41.3789,-6.89649 0,3.44727 0,3.44922 3.44922,0 3.44727,0 0,-3.44922 0,-3.44727 -3.44727,0 -3.44922,0 z m 0,6.89649 -3.44726,0 -3.44922,0 0,6.89648 0,6.89649 10.3457,0 10.34375,0 0,3.44922 0,3.44726 3.44922,0 3.44726,0 0,-3.44726 0,-3.44922 3.44922,0 3.44727,0 0,3.44922 0,3.44726 3.44922,0 2.85547,0 c 0.19945,-0.48817 0.39958,-0.97613 0.59179,-1.46875 l 0,-1.97851 0,-3.44922 1.9336,0 c 0.72941,-2.24146 1.39165,-4.52144 1.9707,-6.84375 1.15175,-4.61941 1.95314,-9.24265 2.4375,-13.84571 l -2.89258,0 -3.44922,0 0,3.44727 0,3.44922 -3.44726,0 -3.44922,0 0,3.44726 0,3.44922 -3.44727,0 -3.44922,0 0,-6.89648 0,-6.89649 -3.44726,0 -3.44922,0 0,6.89649 0,6.89648 -6.89648,0 -6.89649,0 0,-3.44922 0,-3.44726 z m 27.58594,20.68945 -3.44727,0 -3.44922,0 0,6.89649 0,6.89648 3.44922,0 2.82617,0 c 1.35035,-2.23588 2.61609,-4.53674 3.79688,-6.89648 l -3.17578,0 0,-3.44727 0,-3.44922 z m -6.89649,13.79297 -3.44726,0 -3.44922,0 0,-6.89648 0,-6.89649 -10.34375,0 -10.3457,0 0,-3.44726 0,-3.44922 -3.44727,0 -3.44922,0 0,-4.69922 c -0.28854,1.27367 -0.64769,2.58795 -1.13476,3.97851 -1.44868,4.13913 -3.38938,7.34601 -5.76172,9.78516 l 0,4.72852 0,27.58593 6.89648,0 6.89649,0 0,3.44922 0,3.44727 3.44922,0 3.44726,0 0,-3.44727 0,-3.44922 3.44922,0 3.44727,0 0,3.10938 c 5.75839,-4.98622 10.9688,-10.64765 15.49804,-16.90235 l -1.70508,0 0,-3.44726 0,-3.44922 z m -20.68945,27.58594 0,1.67187 c 0.75619,-0.54674 1.50506,-1.10397 2.2461,-1.67187 l -2.2461,0 z m -6.89648,0 -3.44727,0 -3.44922,0 0,6.89648 0,3.1543 c 2.34849,-1.17939 4.64874,-2.44975 6.89649,-3.80859 l 0,-6.24219 z M 274.98162,550.31489 c 0.5807,2.32628 1.24286,4.6265 1.98633,6.89649 l 1.94336,0 0,-3.44922 0,-3.44727 -3.44726,0 -0.48243,0 z m 52.20704,8.46289 0,1.88282 0,3.44726 10.34375,0 8.65429,0 0.12305,-0.49414 c -2.56277,-0.65624 -5.16573,-1.35391 -7.82227,-2.01953 l -11.29882,-2.81641 z m 0,5.33008 -6.89649,0 -6.89648,0 0,3.44922 0,3.44727 6.89648,0 6.89649,0 0,-3.44727 0,-3.44922 z m 0,6.89649 0,6.89648 0,6.89648 6.89648,0 6.89648,0 0,-3.44726 0,-3.44922 -3.44921,0 -3.44727,0 0,-3.44726 0,-3.44922 -3.44922,0 -3.44726,0 z m 13.79296,13.79296 0,3.44922 0,3.44727 3.44727,0 3.44922,0 0,6.89648 0,6.89649 -6.89649,0 -6.89648,0 0,3.44922 0,3.44726 3.44727,0 3.44921,0 0,6.89649 0,1.9375 c 2.23848,0.72827 4.51492,1.38656 6.83399,1.96484 0.0209,0.005 0.0416,0.0104 0.0625,0.0156 l 0,-0.46875 0,-3.44922 3.44726,0 3.44922,0 0,-13.79297 0,-13.79297 6.89649,0 6.89648,0 0,3.44922 0,3.44726 3.44727,0 3.44922,0 0,-13.79297 0,-7.33007 -3.00196,12.02929 -10.97265,-2.73437 3.93554,-15.75781 -0.30664,0 -3.44726,0 0,-3.28516 c -1.46154,-0.37861 -2.94287,-0.77002 -4.44532,-1.17773 l -4.49609,18.03711 -4.85156,-1.21094 0,1.42968 -3.44922,0 -3.44727,0 z m 27.58594,13.79297 -3.44922,0 -3.44726,0 0,6.89649 0,6.89648 6.89648,0 6.89649,0 0,-3.44726 0,-3.44922 -3.44922,0 -3.44727,0 0,-3.44727 0,-3.44922 z m 6.89649,13.79297 0,6.89649 0,6.83789 c 7.04744,-0.24017 13.97617,-1.23384 20.68945,-2.91016 l 0,-0.47851 0,-3.44922 3.44726,0 3.44922,0 0,-10.34375 0,-10.34571 -3.44922,0 -3.44726,0 0,3.44922 0,3.44727 -3.44922,0 -3.44726,0 0,6.89648 0,6.89649 -3.44922,0 -3.44727,0 0,-3.44727 0,-3.44922 -3.44922,0 -3.44726,0 z m 20.68945,-13.79297 0,-3.44726 0,-3.44922 -3.44922,0 -3.44726,0 0,-3.44727 0,-3.44922 -3.44922,0 -3.44727,0 0,6.89649 0,6.89648 6.89649,0 6.89648,0 z m 0,-6.89648 3.44726,0 3.44922,0 0,-3.44727 0,-3.44922 -3.44922,0 -3.44726,0 0,3.44922 0,3.44727 z m -41.37891,27.58594 0,3.44922 0,1.92773 c 4.61473,0.81212 9.22145,1.28928 13.79297,1.45117 l 0,-3.3789 0,-3.44922 -6.89648,0 -6.89649,0 z m -20.68945,-6.89649 -3.44922,0 -3.44726,0 0,3.17774 c 2.24507,1.12328 4.54477,2.1682 6.89648,3.1289 l 0,-6.30664 z m 0,-6.89648 0,-3.44727 0,-3.44922 -3.44922,0 -3.44726,0 0,3.44922 0,3.44727 3.44726,0 3.44922,0 z m -48.27734,-41.37891 0,3.44922 0,3.44727 6.89648,0 6.89648,0 0,-3.44727 0,-3.44922 -6.89648,0 -6.89648,0 z m 131.03515,6.89649 10.34571,0 10.34375,0 0,10.3457 0,10.34375 -10.34375,0 -10.34571,0 0,-10.34375 0,-10.3457 z m -34.48242,1.16796 0,2.28126 0,3.44726 3.44727,0 3.44922,0 0,-5.08594 c -2.20209,-0.0885 -4.50524,-0.31094 -6.89649,-0.64258 z m -95.90234,5.72852 c 1.42706,2.36079 2.95487,4.6595 4.57226,6.89648 l 5.12305,0 17.24219,0 0,17.24219 0,5.1543 c 2.22606,1.61183 4.52382,3.13948 6.89648,4.57227 l 0,-9.72657 0,-24.13867 -24.13867,0 -9.69531,0 z m 137.28125,0 0,3.44922 0,3.44726 3.44922,0 3.44726,0 0,-3.44726 0,-3.44922 -3.44726,0 -3.44922,0 z m -127.25,13.79297 c 3.08502,3.5628 6.42722,6.91717 10.00976,10.0293 l 0,-10.0293 -10.00976,0 z" id="path4222" inkscape:connector-curvature="0"/>
    <path style="fill:#4d4d4d" d="m 371.25822,462.8647 -2.83594,11.36133 0,7.12891 6.89649,0 2.97461,0 1.7207,-6.89649 -1.24805,0 -3.44726,0 0,-3.44922 0,-3.44726 3.44726,0 2.96875,0 0.49024,-1.96289 -10.9668,-2.73438 z m -2.83594,18.49024 -3.44922,0 -3.44726,0 0,3.44726 0,3.44922 3.44726,0 3.44922,0 0,-3.44922 0,-3.44726 z m 0,6.89648 0,3.44727 0,3.44921 -3.44922,0 -3.44726,0 0,6.89649 0,6.89648 -3.44922,0 -3.44727,0 0,3.44727 0,3.44922 -4.90625,0 -0.0449,0.17968 c 0.30628,0.0781 0.70308,0.19219 1.14063,0.36719 -0.36567,-0.0906 -0.75699,-0.19216 -1.16016,-0.28906 l -1.65625,6.63867 6.62695,0 0,6.89649 0,6.89648 3.44727,0 3.44922,0 0,6.89648 0,6.26758 5.0039,-20.06054 -1.55664,0 -3.44726,0 0,-6.89649 0,-6.89648 3.44726,0 3.44922,0 0,-3.44922 0,-3.44727 3.26758,0 3.17187,-12.71679 c 0.12214,0.0304 0.32449,0.072 0.45704,0.10351 l 0,-1.17969 3.44726,0 3.44922,0 0,2.8125 c 2.25459,0.59997 4.64794,1.36292 6.89648,2.35352 l 0,-5.16602 6.89649,0 6.89648,0 0,3.44727 0,3.44922 3.44922,0 3.44727,0 0,10.34375 0,10.3457 3.44922,0 3.02148,0 c 0.1488,-0.22605 0.28532,-0.46963 0.42578,-0.70703 l 0,-2.74219 0,-3.44726 2.375,0 c 0.14802,-0.66311 0.2807,-1.34576 0.38672,-2.0625 0.25598,-1.71088 0.30866,-3.3185 0.18164,-4.83399 l -2.94336,0 0,-3.44922 0,-3.44726 0.83789,0 c -3.52049,-6.22822 -10.99827,-10.37668 -20.07226,-13.50195 l 0.0723,-0.29102 -1.52734,0 0,-6.89648 0,-6.89649 -3.44922,0 -3.23828,0 -2.71094,10.875 c -1.44941,-0.36113 -2.9176,-0.71175 -4.39453,-1.05664 l 0,0.52539 0,3.44922 -6.89648,0 -6.89649,0 z m 27.58594,-13.79297 3.44727,0 1.51953,0 0.98242,-3.93945 -5.94922,-1.48242 0,5.42187 z m 6.89648,27.58594 -3.44921,0 -3.44727,0 0,3.04883 c 0.92308,1.12651 1.59089,2.40147 1.9082,3.84765 l 1.53907,0 3.44921,0 0,-3.44922 0,-3.44726 z m -34.48242,13.79297 0,3.44726 0,3.44922 3.44727,0 3.44922,0 0,-3.09179 c -2.39538,-0.56572 -4.51479,-1.16154 -5.91993,-1.51172 l 0.57227,-2.29297 -1.54883,0 z m -13.79297,20.68945 -3.44922,0 -3.44726,0 0,-3.44922 0,-3.44726 -1.45117,0 -3.79883,15.23046 c -0.5438,1.35001 -1.92272,3.37617 -5.0293,2.60743 0.10939,0.15937 -7.97461,-1.99219 -7.97461,-1.99219 l -2.10156,4.84375 3.11328,0 3.44922,0 0,3.44727 0,3.44921 -3.44922,0 -3.44726,0 0,1.57032 11.26757,2.80859 c 2.65654,0.66562 5.2595,1.36329 7.82227,2.01953 l -0.125,0.49805 1.72461,0 0,10.3457 0,8.91797 4.82031,1.20313 4.49609,-18.03711 c 1.51328,0.41065 3.00441,0.80615 4.47657,1.1875 l 0,-0.16797 0,-3.44922 -3.44922,0 -3.44727,0 0,-3.44727 0,-3.44922 -3.44922,0 -3.44726,0 0,-6.89648 0,-6.89649 3.44726,0 3.44922,0 0,-3.44921 0,-3.44727 z m -27.58593,20.68945 0,-3.44921 0,-2.67579 -2.65625,6.125 2.65625,0 z m 34.48242,-75.86132 0,-1.70118 c -0.58422,-0.14004 -1.1977,-0.27288 -1.77344,-0.41601 l 0.0137,-0.0566 -5.13672,-1.28321 0,3.45704 3.44727,0 3.44922,0 z m -18.375,0 -1.4375,5.76562 c 0,0 8.14259,1.86679 7.9707,1.98242 3.22883,0.80598 4.52341,2.57968 4.94531,4.38281 l 0,-1.7871 0,-3.44727 -3.44922,0 -3.44726,0 0,-3.44922 0,-3.44726 -3.44922,0 -1.13281,0 z m 53.78711,34.48242 c -1.56987,3.05367 -4.4521,4.5103 -7.82618,5.02929 l 0,1.86719 -3.44921,0 -3.44727,0 0,3.44727 0,3.44922 -3.44922,0 -3.44726,0 0,1.61718 c 4.43605,1.17117 9.39347,2.81471 13.19922,5.2793 l 0.59374,0 0,0.38867 c 2.5127,1.74225 4.42446,3.87924 5.22071,6.50781 l 1.67578,0 0,3.44727 0,3.44922 3.44727,0 3.44921,0 0,-3.44922 0,-3.44727 3.44922,0 3.44727,0 0,-3.44921 0,-3.44727 -6.89649,0 -6.89648,0 0,-3.44922 0,-3.44726 3.44727,0 3.44921,0 0,-6.89649 0,-6.89648 -3.44921,0 -2.51758,0 z m 12.86328,27.58593 0,22.82227 c 2.35882,-2.4355 4.28787,-5.63214 5.73047,-9.75391 0.50289,-1.43573 0.87457,-2.7923 1.16601,-4.10351 l 0,-2.06836 0,-6.89649 -3.44726,0 -3.44922,0 z m -41.37891,11.88868 0,1.90429 3.44727,0 3.44922,0 0,-0.64453 c -2.38476,-0.31406 -4.73194,-0.76544 -6.89649,-1.25976 z m 20.68945,0.125 c -1.98838,0.9531 -4.35993,1.40267 -6.89648,1.51367 l 0,0.26562 0,6.89649 -6.89648,0 -6.89649,0 0,3.44922 0,3.44726 -3.17578,0 -3.93359,15.75391 10.97265,2.73437 3.03321,-12.15429 0,-6.33399 3.44726,0 3.44922,0 0,1.16992 c 2.39129,0.33077 4.69454,0.55339 6.89648,0.64063 l 0,-1.81055 0,-6.89648 6.89649,0 6.89648,0 0,-3.44727 0,-3.44922 -6.89648,0 -6.89649,0 0,-1.77929 z" id="path4461" inkscape:connector-curvature="0"/>
  </g>
</svg>