<?xml version="1.0" encoding="UTF-8" standalone="no"?>
<!-- Created with Inkscape (http://www.inkscape.org/) -->

<svg
   xmlns:dc="http://purl.org/dc/elements/1.1/"
   xmlns:cc="http://creativecommons.org/ns#"
   xmlns:rdf="http://www.w3.org/1999/02/22-rdf-syntax-ns#"
   xmlns:svg="http://www.w3.org/2000/svg"
   xmlns="http://www.w3.org/2000/svg"
   xmlns:sodipodi="http://sodipodi.sourceforge.net/DTD/sodipodi-0.dtd"
   xmlns:inkscape="http://www.inkscape.org/namespaces/inkscape"
   width="60.444443mm"
   height="60.444443mm"
   viewBox="0 0 214.17323 214.17323"
   id="svg2"
   version="1.1"
   inkscape:version="0.91 r13725"
   sodipodi:docname="Litecoin.svg"
   style="enable-background:new">
  <defs
     id="defs4" />
  <sodipodi:namedview
     id="base"
     pagecolor="#ffffff"
     bordercolor="#666666"
     borderopacity="1.0"
     inkscape:pageopacity="0.0"
     inkscape:pageshadow="2"
     inkscape:zoom="0.98994949"
     inkscape:cx="222.05343"
     inkscape:cy="188.09216"
     inkscape:document-units="px"
     inkscape:current-layer="layer1"
     showgrid="false"
     fit-margin-top="2"
     fit-margin-bottom="2"
     fit-margin-right="2"
     fit-margin-left="2"
     inkscape:window-width="1218"
     inkscape:window-height="707"
     inkscape:window-x="293"
     inkscape:window-y="54"
     inkscape:window-maximized="0"
     inkscape:snap-bbox="true"
     inkscape:snap-intersection-paths="true"
     inkscape:object-nodes="true"
     inkscape:object-paths="true"
     inkscape:snap-smooth-nodes="true"
     inkscape:snap-midpoints="true" />
  <metadata
     id="metadata7">
    <rdf:RDF>
      <cc:Work
         rdf:about="">
        <dc:format>image/svg+xml</dc:format>
        <dc:type
           rdf:resource="http://purl.org/dc/dcmitype/StillImage" />
        <dc:title />
      </cc:Work>
    </rdf:RDF>
  </metadata>
  <g
     inkscape:label="Layer 1"
     inkscape:groupmode="layer"
     id="layer1"
     transform="translate(-264.96063,-419.09449)"
     style="opacity:1">
    <path
       style="fill:#000000"
       d="m 272.04724,602.04318 0,-24.13794 24.13793,0 24.13793,0 0,24.13794 0,24.13793 -24.13793,0 -24.13793,0 0,-24.13793 z m 41.37931,0 0,-17.24139 -17.24138,0 -17.24138,0 0,17.24139 0,17.24138 17.24138,0 17.24138,0 0,-17.24138 z m -27.58621,0 0,-10.34484 10.34483,0 10.34483,0 0,10.34484 0,10.34483 -10.34483,0 -10.34483,0 0,-10.34483 z m 41.37931,6.89655 0,-17.24139 3.44828,0 3.44828,0 0,-3.44827 0,-3.44828 -3.44828,0 -3.44828,0 0,-6.89655 0,-6.89655 -17.24138,0 -17.24137,0 0,-3.44828 0,-3.44827 -3.44828,0 -3.44828,0 0,-6.89655 0,-6.89656 6.89656,0 6.89655,0 0,6.89656 0,6.89655 10.34482,0 10.34483,0 0,-3.44828 0,-3.44827 -3.44827,0 -3.44828,0 0,-3.44828 0,-3.44828 -3.44828,0 -3.44827,0 0,-6.89655 0,-6.89655 -3.44828,0 -3.44827,0 0,-6.89655 0,-6.89655 3.44827,0 3.44828,0 0,-3.44828 0,-3.44827 -3.44828,0 -3.44827,0 0,-3.44828 0,-3.44827 3.44827,0 3.44828,0 0,-3.44828 0,-3.44828 -3.44828,0 -3.44827,0 0,-3.44827 0,-3.44828 -13.79311,0 -13.7931,0 0,-6.89655 0,-6.89655 17.24138,0 17.24138,0 0,3.44828 0,3.44827 3.44827,0 3.44828,0 0,-3.44827 0,-3.44828 17.24138,0 17.24138,0 0,3.44828 0,3.44827 -3.44828,0 -3.44827,0 0,6.89655 0,6.89655 3.44827,0 3.44828,0 0,-3.44827 0,-3.44828 6.89655,0 6.89655,0 0,-3.44827 0,-3.44828 -3.44827,0 -3.44828,0 0,-10.34483 0,-10.34482 3.44828,0 3.44827,0 0,10.34482 0,10.34483 3.44828,0 3.44827,0 0,-10.34483 0,-10.34482 3.44828,0 3.44828,0 0,-3.44828 0,-3.44827 -3.44828,0 -3.44828,0 0,-3.44828 0,-3.44829 -3.44827,0 -3.44828,0 0,3.44829 0,3.44828 -3.44827,0 -3.44828,0 0,-3.44828 0,-3.44829 -3.44828,0 -3.44827,0 0,10.34484 0,10.34483 -3.44828,0 -3.44827,0 0,-10.34483 0,-10.34484 -6.89655,0 -6.89656,0 0,-3.44827 0,-3.44828 3.44828,0 3.44828,0 0,-3.44827 0,-3.44828 -3.44828,0 -3.44828,0 0,-3.44827 0,-3.44828 3.44828,0 3.44828,0 0,-3.44828 0,-3.44827 3.44827,0 3.44828,0 0,6.89655 0,6.89655 3.44827,0 3.44828,0 0,-3.44827 0,-3.44828 6.89655,0 6.89655,0 0,-3.44828 0,-3.44827 3.44828,0 3.44827,0 0,3.44827 0,3.44828 6.89656,0 6.89655,0 0,-3.44828 0,-3.44827 3.44827,0 3.44828,0 0,3.44827 0,3.44828 3.44828,0 3.44828,0 0,-3.44828 0,-3.44827 3.44828,0 3.44826,0 0,3.44827 0,3.44828 -3.44826,0 -3.44828,0 0,3.44828 0,3.44827 -3.44828,0 -3.44828,0 0,3.44828 0,3.44827 3.44828,0 3.44828,0 0,3.44828 0,3.44827 -3.44828,0 -3.44828,0 0,10.34484 0,10.34483 -3.44828,0 -3.44827,0 0,-3.44828 0,-3.44827 -3.44828,0 -3.44827,0 0,10.34482 0,10.34483 -3.44828,0 -3.44828,0 0,3.44828 0,3.44827 6.89656,0 6.89655,0 0,-3.44827 0,-3.44828 3.44827,0 3.44828,0 0,-3.44827 0,-3.44828 6.89656,0 6.89654,0 0,3.44828 0,3.44827 -6.89654,0 -6.89656,0 0,3.44828 0,3.44827 -3.44828,0 -3.44827,0 0,3.44828 0,3.44827 3.44827,0 3.44828,0 0,3.44828 0,3.44828 -3.44828,0 -3.44827,0 0,-3.44828 0,-3.44828 -6.89655,0 -6.89656,0 0,-3.44827 0,-3.44828 -3.44827,0 -3.44828,0 0,3.44828 0,3.44827 -3.44827,0 -3.44828,0 0,6.89656 0,6.89655 3.44828,0 3.44827,0 0,-3.44828 0,-3.44827 6.89655,0 6.89656,0 0,3.44827 0,3.44828 6.89655,0 6.89655,0 0,3.44827 0,3.44828 3.44828,0 3.44828,0 0,-3.44828 0,-3.44827 10.34482,0 10.34484,0 0,3.44827 0,3.44828 -6.89655,0 -6.89657,0 0,6.89655 0,6.89655 -3.44826,0 -3.44828,0 0,-3.44827 0,-3.44828 -3.44828,0 -3.44828,0 0,6.89655 0,6.89655 3.44828,0 3.44828,0 0,3.44828 0,3.44827 3.44828,0 3.44826,0 0,3.44828 0,3.44828 3.44828,0 3.44829,0 0,-6.89656 0,-6.89655 3.44827,0 3.44828,0 0,-3.44827 0,-3.44828 -3.44828,0 -3.44827,0 0,-3.44827 0,-3.44828 6.89655,0 6.89655,0 0,6.89655 0,6.89655 6.89655,0 6.89655,0 0,-3.44827 0,-3.44828 -3.44827,0 -3.44828,0 0,-3.44827 0,-3.44828 3.44828,0 3.44827,0 0,3.44828 0,3.44827 3.44828,0 3.44827,0 0,-6.89655 0,-6.89655 -10.34482,0 -10.34483,0 0,-3.44828 0,-3.44827 10.34483,0 10.34482,0 0,3.44827 0,3.44828 6.89656,0 6.89655,0 0,3.44827 0,3.44828 -3.44828,0 -3.44827,0 0,3.44828 0,3.44827 10.34482,0 10.34483,0 0,6.89655 0,6.89655 -6.89655,0 -6.89655,0 0,3.44828 0,3.44828 3.44827,0 3.44828,0 0,3.44827 0,3.44828 3.44828,0 3.44827,0 0,6.89655 0,6.89655 -10.34483,0 -10.34482,0 0,6.89655 0,6.89655 6.89655,0 6.89655,0 0,-3.44827 0,-3.44828 3.44828,0 3.44827,0 0,10.34483 0,10.34484 -3.44827,0 -3.44828,0 0,6.89655 0,6.89655 -3.44828,0 -3.44827,0 0,3.44827 0,3.44828 -6.89655,0 -6.89656,0 0,-3.44828 0,-3.44827 6.89656,0 6.89655,0 0,-3.44828 0,-3.44827 -3.44828,0 -3.44827,0 0,-3.44828 0,-3.44827 -3.44828,0 -3.44828,0 0,3.44827 0,3.44828 -6.89655,0 -6.89655,0 0,6.89655 0,6.89655 -3.44827,0 -3.44828,0 0,-3.44828 0,-3.44827 -6.89655,0 -6.89655,0 0,3.44827 0,3.44828 -3.44829,0 -3.44828,0 0,-3.44828 0,-3.44827 -3.44826,0 -3.44828,0 0,-3.44828 0,-3.44827 10.34482,0 10.34484,0 0,-3.44828 0,-3.44827 -13.79312,0 -13.7931,0 0,3.44827 0,3.44828 -6.89655,0 -6.89655,0 0,-3.44828 0,-3.44827 6.89655,0 6.89655,0 0,-3.44828 0,-3.44828 -3.44828,0 -3.44827,0 0,-3.44828 0,-3.44828 -3.44828,0 -3.44827,0 0,3.44828 0,3.44828 -3.44828,0 -3.44828,0 0,3.44828 0,3.44828 -3.44827,0 -3.44828,0 0,3.44827 0,3.44828 -3.44827,0 -3.44828,0 0,3.44827 0,3.44828 3.44828,0 3.44827,0 0,3.44827 0,3.44828 -17.24138,0 -17.24138,0 0,-17.24138 z m 20.68966,3.44828 0,-6.89655 6.89655,0 6.89655,0 0,-3.44828 0,-3.44828 -3.44827,0 -3.44828,0 0,-6.89656 0,-6.89655 3.44828,0 3.44827,0 0,3.44828 0,3.44827 3.44828,0 3.44827,0 0,-6.89655 0,-6.89655 6.89656,0 6.89655,0 0,6.89655 0,6.89655 3.44827,0 3.44828,0 0,3.44828 0,3.44828 10.34484,0 10.34483,0 0,-3.44828 0,-3.44828 -3.44829,0 -3.44828,0 0,-3.44827 0,-3.44828 -6.89654,0 -6.89656,0 0,-3.44828 0,-3.44827 3.44828,0 3.44828,0 0,-3.44828 0,-3.44827 3.44828,0 3.44826,0 0,3.44827 0,3.44828 3.44828,0 3.44829,0 0,-6.89655 0,-6.89655 -3.44829,0 -3.44828,0 0,-3.44828 0,-3.44827 -3.44826,0 -3.44828,0 0,-3.44828 0,-3.44828 -6.89656,0 -6.89655,0 0,-3.44827 0,-3.44828 -6.89655,0 -6.89656,0 0,3.44828 0,3.44827 -3.44827,0 -3.44828,0 0,-3.44827 0,-3.44828 -3.44827,0 -3.44828,0 0,-6.89655 0,-6.89655 3.44828,0 3.44827,0 0,3.44828 0,3.44827 6.89655,0 6.89656,0 0,-6.89655 0,-6.89655 -3.44828,0 -3.44828,0 0,-3.44828 0,-3.44827 -3.44827,0 -3.44828,0 0,3.44827 0,3.44828 -3.44827,0 -3.44828,0 0,-3.44828 0,-3.44827 -3.44828,0 -3.44827,0 0,-3.44828 0,-3.44827 -3.44828,0 -3.44827,0 0,3.44827 0,3.44828 3.44827,0 3.44828,0 0,3.44827 0,3.44828 -6.89655,0 -6.89655,0 0,-6.89655 0,-6.89655 -6.89656,0 -6.89655,0 0,-3.44828 0,-3.44828 3.44828,0 3.44827,0 0,-3.44827 0,-3.44828 3.44828,0 3.44828,0 0,-3.44827 0,-3.44828 -3.44828,0 -3.44828,0 0,3.44828 0,3.44827 -3.44827,0 -3.44828,0 0,-3.44827 0,-3.44828 -3.44827,0 -3.44828,0 0,3.44828 0,3.44827 3.44828,0 3.44827,0 0,3.44828 0,3.44827 -3.44827,0 -3.44828,0 0,3.44828 0,3.44828 -3.44828,0 -3.44827,0 0,3.44827 0,3.44828 3.44827,0 3.44828,0 0,3.44827 0,3.44828 3.44828,0 3.44827,0 0,3.44827 0,3.44828 -6.89655,0 -6.89655,0 0,3.44828 0,3.44827 6.89655,0 6.89655,0 0,-3.44827 0,-3.44828 3.44828,0 3.44827,0 0,-3.44828 0,-3.44827 3.44828,0 3.44828,0 0,6.89655 0,6.89655 3.44827,0 3.44828,0 0,3.44828 0,3.44827 3.44827,0 3.44828,0 0,3.44828 0,3.44827 6.89655,0 6.89655,0 0,3.44828 0,3.44828 -3.44827,0 -3.44828,0 0,6.89655 0,6.89655 -3.44828,0 -3.44827,0 0,6.89655 0,6.89655 -3.44828,0 -3.44827,0 0,3.44828 0,3.44827 3.44827,0 3.44828,0 0,3.44828 0,3.44828 -6.89655,0 -6.89655,0 0,3.44828 0,3.44828 3.44827,0 3.44828,0 0,6.89655 0,6.89655 3.44827,0 3.44828,0 0,-6.89655 z m 6.89655,-37.93105 0,-3.44827 3.44828,0 3.44827,0 0,-3.44828 0,-3.44827 3.44828,0 3.44827,0 0,-6.89655 0,-6.89656 6.89656,0 6.89655,0 0,3.44828 0,3.44828 3.44827,0 3.44828,0 0,3.44827 0,3.44828 3.44828,0 3.44828,0 0,3.44827 0,3.44828 -3.44828,0 -3.44828,0 0,3.44827 0,3.44828 -3.44828,0 -3.44827,0 0,-3.44828 0,-3.44827 -6.89655,0 -6.89656,0 0,3.44827 0,3.44828 -6.89655,0 -6.89655,0 0,-3.44828 z m 27.58621,-13.7931 0,-3.44827 -3.44828,0 -3.44827,0 0,3.44827 0,3.44828 3.44827,0 3.44828,0 0,-3.44828 z m -41.37931,-27.5862 0,-3.44828 3.44827,0 3.44828,0 0,3.44828 0,3.44827 -3.44828,0 -3.44827,0 0,-3.44827 z m 20.68965,-6.89656 0,-3.44827 3.44828,0 3.44827,0 0,3.44827 0,3.44828 -3.44827,0 -3.44828,0 0,-3.44828 z m -48.27586,-13.7931 0,-3.44827 3.44828,0 3.44827,0 0,3.44827 0,3.44828 -3.44827,0 -3.44828,0 0,-3.44828 z m 124.13794,89.65518 0,-3.44828 -10.34482,0 -10.34483,0 0,3.44828 0,3.44828 10.34483,0 10.34482,0 0,-3.44828 z m 13.79311,-6.89656 0,-3.44828 -3.44828,0 -3.44828,0 0,3.44828 0,3.44828 3.44828,0 3.44828,0 0,-3.44828 z m -13.79311,-13.79311 0,-10.34482 -10.34482,0 -10.34483,0 0,10.34482 0,10.34483 10.34483,0 10.34482,0 0,-10.34483 z m -13.7931,0 0,-3.44827 3.44828,0 3.44827,0 0,3.44827 0,3.44828 -3.44827,0 -3.44828,0 0,-3.44828 z m -82.75863,-10.34482 0,-6.89655 3.44827,0 3.44828,0 0,-3.44828 0,-3.44827 -6.89655,0 -6.89655,0 0,-6.89656 0,-6.89655 -3.44828,0 -3.44828,0 0,6.89655 0,6.89656 3.44828,0 3.44828,0 0,10.34482 0,10.34483 3.44827,0 3.44828,0 0,-6.89655 z m 110.34484,0 0,-6.89655 3.44827,0 3.44828,0 0,3.44827 0,3.44828 3.44827,0 3.44828,0 0,-3.44828 0,-3.44827 -3.44828,0 -3.44827,0 0,-3.44828 0,-3.44827 -3.44828,0 -3.44827,0 0,3.44827 0,3.44828 -3.44828,0 -3.44828,0 0,-3.44828 0,-3.44827 -3.44827,0 -3.44828,0 0,-3.44828 0,-3.44828 -6.89655,0 -6.89655,0 0,-3.44827 0,-3.44828 -3.44828,0 -3.44827,0 0,6.89655 0,6.89656 3.44827,0 3.44828,0 0,3.44827 0,3.44828 3.44828,0 3.44827,0 0,-3.44828 0,-3.44827 3.44828,0 3.44827,0 0,3.44827 0,3.44828 3.44828,0 3.44827,0 0,6.89655 0,6.89655 3.44828,0 3.44828,0 0,-6.89655 z m -131.0345,-24.13793 0,-3.44828 -3.44827,0 -3.44828,0 0,3.44828 0,3.44827 3.44828,0 3.44827,0 0,-3.44827 z m 131.0345,-6.89655 0,-3.44828 -3.44828,0 -3.44828,0 0,3.44828 0,3.44827 3.44828,0 3.44828,0 0,-3.44827 z m -62.06898,-13.79311 0,-3.44827 -3.44828,0 -3.44827,0 0,3.44827 0,3.44828 3.44827,0 3.44828,0 0,-3.44828 z M 306.53,491.69835 l 0,-3.44828 -3.44828,0 -3.44827,0 0,3.44828 0,3.44827 3.44827,0 3.44828,0 0,-3.44827 z m 75.86207,-34.48276 0,-3.44829 3.44827,0 3.44828,0 0,-3.44827 0,-3.44828 -3.44828,0 -3.44827,0 0,3.44828 0,3.44827 -3.44828,0 -3.44827,0 0,-6.89655 0,-6.89655 -10.34483,0 -10.34483,0 0,6.89655 0,6.89655 3.44828,0 3.44827,0 0,-3.44827 0,-3.44828 3.44828,0 3.44827,0 0,3.44828 0,3.44827 3.44828,0 3.44828,0 0,3.44829 0,3.44828 3.44827,0 3.44828,0 0,-3.44828 z m -34.48276,-6.89656 0,-3.44828 -3.44828,0 -3.44827,0 0,3.44828 0,3.44827 3.44827,0 3.44828,0 0,-3.44827 z m 41.37931,-13.7931 0,-3.44828 -3.44828,0 -3.44827,0 0,3.44828 0,3.44827 3.44827,0 3.44828,0 0,-3.44827 z m -13.7931,186.2069 0,-3.44827 6.89655,0 6.89655,0 0,3.44827 0,3.44828 -6.89655,0 -6.89655,0 0,-3.44828 z m -103.44828,-65.51724 0,-13.79311 3.44828,0 3.44827,0 0,13.79311 0,13.7931 -3.44827,0 -3.44828,0 0,-13.7931 z m 13.7931,-17.24138 0,-3.44828 3.44828,0 3.44828,0 0,3.44828 0,3.44827 -3.44828,0 -3.44828,0 0,-3.44827 z m -13.7931,-10.34483 0,-6.89655 3.44828,0 3.44827,0 0,-3.44828 0,-3.44827 -3.44827,0 -3.44828,0 0,-3.44828 0,-3.44827 3.44828,0 3.44827,0 0,3.44827 0,3.44828 6.89655,0 6.89656,0 0,6.89655 0,6.89655 -6.89656,0 -6.89655,0 0,3.44828 0,3.44827 -3.44827,0 -3.44828,0 0,-6.89655 z m 193.10346,-10.34483 0,-3.44827 3.44828,0 3.44827,0 0,3.44827 0,3.44828 -3.44827,0 -3.44828,0 0,-3.44828 z m -13.7931,-6.89655 0,-3.44827 -3.44828,0 -3.44828,0 0,-3.44828 0,-3.44828 -6.89655,0 -6.89655,0 0,3.44828 0,3.44828 -17.24138,0 -17.24138,0 0,-3.44828 0,-3.44828 6.89654,0 6.89657,0 0,-17.24137 0,-17.24138 3.44827,0 3.44828,0 0,6.89655 0,6.89655 3.44827,0 3.44828,0 0,10.34483 0,10.34482 3.44828,0 3.44827,0 0,-10.34482 0,-10.34483 3.44828,0 3.44827,0 0,3.44828 0,3.44827 3.44828,0 3.44827,0 0,-3.44827 0,-3.44828 3.44828,0 3.44828,0 0,13.7931 0,13.79311 3.44827,0 3.44828,0 0,-3.44828 0,-3.44828 3.44827,0 3.44828,0 0,3.44828 0,3.44828 -3.44828,0 -3.44827,0 0,3.44827 0,3.44828 -3.44828,0 -3.44827,0 0,-3.44828 z m -165.51726,-6.89655 0,-3.44828 3.44828,0 3.44828,0 0,3.44828 0,3.44828 -3.44828,0 -3.44828,0 0,-3.44828 z m 172.41381,-17.24138 0,-6.89655 3.44827,0 3.44828,0 0,3.44828 0,3.44827 3.44828,0 3.44827,0 0,3.44828 0,3.44827 -6.89655,0 -6.89655,0 0,-6.89655 z m -186.20691,-37.93104 0,-24.13793 24.13793,0 24.13793,0 0,24.13793 0,24.13794 -24.13793,0 -24.13793,0 0,-24.13794 z m 41.37931,0 0,-17.24138 -17.24138,0 -17.24138,0 0,17.24138 0,17.24139 17.24138,0 17.24138,0 0,-17.24139 z m -27.58621,0 0,-10.34483 10.34483,0 10.34483,0 0,10.34483 0,10.34484 -10.34483,0 -10.34483,0 0,-10.34484 z m 41.37931,17.24139 0,-6.89655 3.44828,0 3.44828,0 0,6.89655 0,6.89655 -3.44828,0 -3.44828,0 0,-6.89655 z m 68.96553,0 0,-6.89655 3.44828,0 3.44826,0 0,-3.44828 0,-3.44829 3.44828,0 3.44829,0 0,-3.44827 0,-3.44828 3.44827,0 3.44828,0 0,6.89655 0,6.89657 -6.89655,0 -6.89657,0 0,6.89655 0,6.89655 -3.44826,0 -3.44828,0 0,-6.89655 z m 27.58621,-17.24139 0,-24.13793 24.13793,0 24.13793,0 0,24.13793 0,24.13794 -24.13793,0 -24.13793,0 0,-24.13794 z m 41.37931,0 0,-17.24138 -17.24138,0 -17.24138,0 0,17.24138 0,17.24139 17.24138,0 17.24138,0 0,-17.24139 z m -27.58621,0 0,-10.34483 10.34483,0 10.34483,0 0,10.34483 0,10.34484 -10.34483,0 -10.34483,0 0,-10.34484 z m -27.5862,-17.24138 0,-6.89655 3.44827,0 3.44828,0 0,6.89655 0,6.89655 -3.44828,0 -3.44827,0 0,-6.89655 z"
       id="path4149"
       inkscape:connector-curvature="0" />
    <path
       inkscape:connector-curvature="0"
       style="fill:#bebebe"
       d="m 471.15379,526.1805 c 0,54.73565 -44.3709,99.10776 -99.10594,99.10776 -54.73564,0 -99.10714,-44.37211 -99.10714,-99.10776 0,-54.73505 44.3715,-99.10655 99.10714,-99.10655 54.73444,0 99.10594,44.3715 99.10594,99.10655"
       id="path6" />
    <path
       id="path4972"
       d="m 366.25535,556.25284 6.43725,-24.2392 15.2404,-5.56796 3.79084,-14.24528 -0.12944,-0.35337 -15.002,5.48066 10.80903,-40.70046 -30.65478,0 -14.13572,53.11504 -11.80234,4.31158 -3.89979,14.68595 11.79331,-4.30796 -8.33117,31.30314 81.58453,0 5.23023,-19.48214 -50.93035,0"
       style="fill:#ffffff"
       inkscape:connector-curvature="0" />
    <path
       style="fill:#0088aa"
       d="m 368.63221,427.14107 c -2.31933,0.0793 -4.62027,0.23072 -6.89648,0.4668 l 0,2.02149 0,3.44726 -6.89649,0 -6.89648,0 0,3.44922 0,3.44727 -3.44922,0 -3.44727,0 0,-6.89649 0,-1.03906 c -4.76759,1.57076 -9.376,3.49033 -13.79296,5.73437 l 0,2.20118 3.44726,0 3.44922,0 0,3.44921 0,3.44727 -3.44922,0 -3.44726,0 0,3.44922 0,3.44726 6.89648,0 6.89648,0 0,-3.44726 0,-3.44922 3.44727,0 3.44922,0 0,3.44922 0,3.44726 3.44726,0 3.44922,0 0,-6.89648 0,-6.89648 10.34375,0 10.34571,0 0,6.89648 0,6.89648 3.44726,0 3.44922,0 0,-3.44726 0,-3.44922 3.44727,0 3.44921,0 0,-3.44727 0,-3.44921 -3.44921,0 -3.44727,0 0,-3.44727 0,-3.44922 -6.89648,0 -6.89649,0 0,-3.44726 0,-2.48829 z m 13.79297,5.93555 3.44727,0 3.44921,0 0,-3.44726 0,-1.0586 c -2.27328,-0.39879 -4.57268,-0.72187 -6.89648,-0.96289 l 0,2.02149 0,3.44726 z m 6.89648,0 0,3.44922 0,3.44727 3.44727,0 3.44922,0 0,-3.44727 0,-3.44922 -3.44922,0 -3.44727,0 z m 6.89649,0 3.44727,0 3.44921,0 0,-1.03906 c -2.26413,-0.74597 -4.5635,-1.41416 -6.89648,-1.99805 l 0,3.03711 z m -6.89649,13.79297 0,3.44922 0,3.44726 3.44727,0 3.44922,0 0,-3.44726 0,-3.44922 -3.44922,0 -3.44727,0 z m 0,6.89648 -3.44921,0 -3.44727,0 0,3.44922 0,3.44922 -3.44922,0 -3.44726,0 0,3.44727 0,3.44922 3.44726,0 3.44922,0 0,3.44726 0,3.44922 3.44727,0 3.44921,0 0,-10.3457 0,-10.34571 z m -13.79296,13.79493 -3.44922,0 -3.44727,0 0,10.34375 0,10.3457 3.44727,0 3.44922,0 0,-10.3457 0,-10.34375 z m -6.89649,20.68945 -3.44922,0 -3.44726,0 0,3.44727 0,3.44921 3.44726,0 3.44922,0 0,-3.44921 0,-3.44727 z m 0,6.89648 0,3.44727 0,3.44922 6.89649,0 6.89648,0 0,-3.44922 0,-3.44727 -6.89648,0 -6.89649,0 z m 13.79297,0 3.44727,0 3.44921,0 0,-3.44921 0,-3.44727 -3.44921,0 -3.44727,0 0,3.44727 0,3.44921 z m 6.89648,-6.89648 6.89649,0 6.89648,0 0,-3.44922 0,-3.44726 -6.89648,0 -6.89649,0 0,3.44726 0,3.44922 z m -6.89648,13.79297 0,3.44726 0,3.44922 3.44727,0 3.44921,0 0,-3.44922 0,-3.44726 -3.44921,0 -3.44727,0 z m -20.68945,-6.89649 -6.89649,0 -6.89648,0 0,3.44727 0,3.44922 -3.44922,0 -3.44727,0 0,-6.89649 0,-6.89648 3.44727,0 3.44922,0 0,-3.44922 0,-3.44726 -17.24219,0 -17.24023,0 0,3.44726 0,3.44922 3.44726,0 3.44922,0 0,3.44727 0,3.44921 3.44727,0 3.44922,0 0,-3.44921 0,-3.44727 3.44726,0 3.44922,0 0,3.44727 0,3.44921 -3.44922,0 -3.44726,0 0,3.44727 0,3.44922 -3.44922,0 -3.44727,0 0,3.44726 0,3.44922 6.89649,0 6.89648,0 0,6.89649 0,6.89648 6.89648,0 6.89649,0 0,-3.44922 0,-3.44726 -3.44922,0 -3.44727,0 0,-3.44922 0,-3.44727 3.44727,0 3.44922,0 0,3.44727 0,3.44922 3.44726,0 3.44922,0 0,-6.89649 0,-6.89648 3.44727,0 3.44922,0 0,-3.44922 0,-3.44727 z m -6.89649,20.68946 0,3.44726 0,3.44922 3.44727,0 3.44922,0 0,-3.44922 0,-3.44726 -3.44922,0 -3.44727,0 z m 6.89649,0 3.44726,0 3.44922,0 0,3.44726 0,3.44922 3.44727,0 3.44922,0 0,6.89649 0,6.89648 -6.89649,0 -6.89648,0 0,-3.44922 0,-3.44726 -3.44922,0 -3.44727,0 0,6.89648 0,6.89648 3.44727,0 3.44922,0 0,3.44727 0,3.44922 3.44726,0 3.44922,0 0,-3.44922 0,-3.44727 6.89649,0 6.89648,0 0,3.44727 0,3.44922 6.89648,0 6.89649,0 0,-3.44922 0,-3.44727 -3.44922,0 -3.44727,0 0,-6.89648 0,-6.89648 -3.44921,0 -3.44727,0 0,-3.44922 0,-3.44727 3.44727,0 3.44921,0 0,-3.44922 0,-3.44726 -6.89648,0 -6.89648,0 0,-3.44922 0,-3.44727 -6.89649,0 -6.89648,0 0,3.44727 0,3.44922 z m 27.58593,6.89648 0,3.44727 0,3.44922 3.44727,0 3.44922,0 0,3.44726 0,3.44922 3.44727,0 3.44921,0 0,-6.89648 0,-6.89649 6.89649,0 6.89648,0 0,-3.44922 0,-3.44726 -10.34375,0 -10.3457,0 0,3.44726 0,3.44922 -3.44922,0 -3.44727,0 z m 6.89649,27.58594 0,3.44727 0,3.44921 3.44727,0 3.44921,0 0,-3.44921 0,-3.44727 -3.44921,0 -3.44727,0 z m 6.89648,6.89648 0,3.44922 0,3.44727 3.44922,0 3.44727,0 0,6.89648 0,6.89649 -3.44727,0 -3.44922,0 0,-3.44727 0,-3.44922 -3.44921,0 -3.44727,0 0,3.44922 0,3.44727 -3.44922,0 -3.44727,0 0,3.44922 0,3.44726 6.89649,0 6.89648,0 0,3.44922 0,3.44727 3.44922,0 3.44727,0 0,3.44921 0,3.44727 -10.3457,0 -10.34376,0 0,3.44922 0,3.44726 13.79297,0 13.79297,0 0,-3.44726 0,-3.44922 10.34571,0 10.34375,0 0,1.94141 c 2.40585,-2.12155 4.70674,-4.3564 6.89648,-6.69922 l 0,-2.13867 1.94141,0 c 1.7283,-1.96001 3.38397,-3.98699 4.95507,-6.08008 l 0,-0.81641 0,-6.89648 -3.44726,0 -3.44922,0 0,-6.89649 0,-6.89648 -3.44727,0 -3.44921,0 0,-3.44727 0,-3.44922 -3.44727,0 -3.44922,0 0,3.44922 0,3.44727 -3.44726,0 -3.44922,0 0,-3.44727 0,-3.44922 -3.44727,0 -3.44922,0 0,-6.89648 0,-6.89649 -3.44726,0 -3.44922,0 0,6.89649 0,6.89648 -3.44727,0 -3.44922,0 z m 13.79297,-13.79297 3.44922,0 3.44727,0 0,-6.89648 0,-6.89648 -6.89649,0 -6.89648,0 0,3.44726 0,3.44922 3.44922,0 3.44726,0 0,3.44727 0,3.44921 z m 6.89649,0 0,3.44727 0,3.44922 6.89648,0 6.89649,0 0,3.44727 0,3.44921 3.44921,0 3.44727,0 0,3.44922 0,3.44727 3.44922,0 3.44726,0 0,-3.44727 0,-3.44922 3.44922,0 3.44727,0 0,-3.44921 0,-3.44727 6.89648,0 3.03711,0 c 1.12232,-4.48449 1.94376,-9.08968 2.43164,-13.79297 l -8.91601,0 -10.34571,0 0,3.44727 0,3.44921 -3.44726,0 -3.44922,0 0,-3.44921 0,-3.44727 -3.44727,0 -3.44921,0 0,3.44727 0,3.44921 -6.89649,0 -6.89648,0 z m 13.79297,-6.89648 0,-3.44922 0,-3.44726 -3.44727,0 -3.44922,0 0,3.44726 0,3.44922 3.44922,0 3.44727,0 z m 6.89648,0 3.44922,0 3.44726,0 0,-3.44922 0,-3.44726 3.44922,0 3.44727,0 0,-3.44922 0,-3.44727 -6.89649,0 -6.89648,0 0,6.89649 0,6.89648 z m 0,-13.79297 0,-3.44922 0,-3.44726 -10.34375,0 -10.3457,0 0,3.44726 0,3.44922 10.3457,0 10.34375,0 z m 13.79297,34.48242 0,3.44922 0,3.44727 3.44922,0 1.92578,0 c 0.53138,-1.28156 1.043,-2.57479 1.52148,-3.88281 l 0,-3.01368 -3.44726,0 -3.44922,0 z m 0,6.89649 -3.44727,0 -3.44922,0 0,6.89648 0,6.89649 5.24024,0 c 1.37441,-2.2419 2.66294,-4.54151 3.85937,-6.89649 l -2.20312,0 0,-3.44726 0,-3.44922 z m -41.37891,41.3789 0,3.44922 0,3.44727 -10.34375,0 -10.3457,0 0,3.44922 0,3.44726 3.44727,0 3.44921,0 0,1.04102 c 10.32074,-3.40042 19.89465,-8.44622 28.4043,-14.83399 l -4.26562,0 -10.34571,0 z m -27.58594,0 -6.89648,0 -6.89648,0 0,3.44922 0,3.44727 6.89648,0 6.89648,0 0,-3.44727 0,-3.44922 z m 0,-6.89648 0,-3.44727 0,-3.44921 -3.44921,0 -3.44727,0 0,3.44921 0,3.44727 3.44727,0 3.44921,0 z m -6.89648,-6.89648 0,-6.89649 0,-6.89648 -6.89648,0 -6.89649,0 0,6.89648 0,6.89649 -3.44922,0 -3.44726,0 0,-3.44727 0,-3.44922 -3.44922,0 -3.44727,0 0,6.89649 0,6.89648 3.44727,0 3.44922,0 0,3.44922 0,3.44726 3.44726,0 3.44922,0 0,-3.44726 0,-3.44922 3.44727,0 3.44922,0 0,-3.44727 0,-3.44921 3.44726,0 3.44922,0 z m -20.68945,13.79296 -6.89649,0 -6.89648,0 0,6.89649 0,6.89648 -3.44922,0 -3.44727,0 0,-6.89648 0,-6.89649 -3.44921,0 -3.44727,0 0,-3.44726 0,-3.44922 6.89648,0 6.89649,0 0,-3.44727 0,-3.44921 -3.44922,0 -3.44727,0 0,-3.44727 0,-3.44922 3.44727,0 3.44922,0 0,-6.89648 0,-6.89649 3.44726,0 3.44922,0 0,-6.89648 0,-6.89649 3.44727,0 3.44922,0 0,-3.44921 0,-3.44727 -6.89649,0 -6.89648,0 0,-3.44922 0,-3.44727 -3.44922,0 -3.44727,0 0,-3.44921 0,-3.44727 -3.44921,0 -3.44727,0 0,-6.89648 0,-6.89649 -3.44922,0 -3.44726,0 0,3.44727 0,3.44922 -3.44922,0 -3.44727,0 0,3.44726 0,3.44922 -6.89648,0 -6.89649,0 0,6.89648 0,6.89649 3.44727,0 3.44922,0 0,-3.44922 0,-3.44727 3.44726,0 3.44922,0 0,3.44727 0,3.44922 -3.44922,0 -3.44726,0 0,3.44727 0,3.44921 3.44726,0 3.44922,0 0,3.44922 0,3.44727 -10.3457,0 -10.3457,0 0,-6.89649 0,-6.89648 -6.89649,0 -6.89648,0 0,6.89648 0,6.89649 3.44921,0 3.44727,0 0,3.44922 0,3.44726 17.24219,0 17.24219,0 0,6.89649 0,6.89648 3.44726,0 3.44922,0 0,3.44922 0,3.44727 -3.44922,0 -3.44726,0 0,17.24218 0,5.65039 c 10.54711,5.35854 22.17948,8.88608 34.48242,10.16211 l 0,-2.01953 0,-3.44922 -3.44922,0 -3.44727,0 0,-3.44726 0,-3.44922 3.44727,0 3.44922,0 0,-3.44727 0,-3.44922 z m -55.17188,-68.96484 0,-3.44922 0,-3.44726 6.89649,0 6.89648,0 0,-3.44922 0,-3.44727 -3.44922,0 -3.44726,0 0,-3.44922 0,-3.44726 -3.44922,0 -3.44727,0 0,3.44726 0,3.44922 -3.44922,0 -3.44921,0 0,6.89649 0,6.89648 3.44921,0 3.44922,0 z m 0,-20.68945 0,-3.44922 0,-3.44727 -3.44922,0 -3.44921,0 0,3.44727 0,3.44922 3.44921,0 3.44922,0 z m 0,-6.89649 3.44727,0 3.44922,0 0,-3.44922 0,-3.44726 3.44726,0 3.44922,0 0,-3.44922 0,-3.44727 -3.44922,0 -3.44726,0 0,-3.44921 0,-3.44727 -3.44922,0 -3.44727,0 0,3.44727 0,3.44921 -3.44922,0 -3.44921,0 0,3.44727 0,3.44922 3.44921,0 3.44922,0 0,3.44726 0,3.44922 z m -6.89843,-13.79297 0,-3.44921 0,-3.44727 3.44921,0 3.44922,0 0,-3.44922 0,-3.44726 -17.24219,0 -5.65039,0 c -2.24392,4.41685 -4.16371,9.02551 -5.73437,13.79296 l 7.93555,0 13.79297,0 z m 13.79492,13.79297 0,3.44727 0,3.44922 3.44726,0 3.44922,0 0,-3.44922 0,-3.44727 -3.44922,0 -3.44726,0 z m 27.58593,27.58594 3.44727,0 3.44922,0 0,-3.44922 0,-3.44726 -3.44922,0 -3.44727,0 0,3.44726 0,3.44922 z m 13.79297,34.48242 0,3.44922 0,3.44727 6.89649,0 6.89648,0 0,-3.44727 0,-3.44922 6.89649,0 6.89648,0 0,3.44922 0,3.44727 3.44727,0 3.44921,0 0,-3.44727 0,-3.44922 3.44727,0 3.44922,0 0,-3.44726 0,-3.44922 -3.44922,0 -3.44727,0 0,-3.44727 0,-3.44922 -3.44921,0 -3.44727,0 0,3.44922 0,3.44727 -3.44922,0 -3.44726,0 0,-3.44727 0,-3.44922 3.44726,0 3.44922,0 0,-3.44921 0,-3.44727 -6.89648,0 -6.89649,0 0,6.89648 0,6.89649 -3.44922,0 -3.44726,0 0,3.44922 0,3.44726 -3.44922,0 -3.44727,0 z m 6.89649,-41.3789 3.44726,0 3.44922,0 0,-3.44922 0,-3.44727 -3.44922,0 -3.44726,0 0,3.44727 0,3.44922 z m 0,-41.37891 0,-10.3457 0,-10.34375 -3.44922,0 -3.44727,0 0,10.34375 0,10.3457 3.44727,0 3.44922,0 z m 13.79297,-27.58594 0,-3.44922 0,-3.44922 -3.44922,0 -3.44727,0 0,3.44922 0,3.44922 3.44727,0 3.44922,0 z m -6.89649,-6.89844 0,-3.44726 0,-3.44922 -3.44922,0 -3.44726,0 0,3.44922 0,3.44726 3.44726,0 3.44922,0 z m -6.89648,0 -3.44922,0 -3.44727,0 0,3.44922 0,3.44922 3.44727,0 3.44922,0 0,-3.44922 0,-3.44922 z m -13.79297,0 -3.44922,0 -3.44727,0 0,10.34571 0,10.3457 3.44727,0 3.44922,0 0,-10.3457 0,-10.34571 z m 62.06836,-19.16796 0,5.375 3.44922,0 3.44726,0 0,-2.20118 c -2.25056,-1.14342 -4.55097,-2.20128 -6.89648,-3.17382 z m -89.6543,7.0332 c -2.36632,1.45072 -4.66682,2.99839 -6.89648,4.63672 l 0,4.05078 0,17.24219 -17.24219,0 -4.04883,0 c -1.63886,2.23037 -3.1895,4.52937 -4.64062,6.89648 l 8.68945,0 24.13867,0 0,-24.13867 0,-8.6875 z m 103.44727,0 0,8.6875 0,24.13867 24.13867,0 8.68945,0 c -1.45112,-2.36711 -3.00177,-4.66611 -4.64062,-6.89648 l -4.04883,0 -17.24219,0 0,-17.24219 0,-4.05078 c -2.22989,-1.63856 -4.5299,-3.18583 -6.89648,-4.63672 z m -13.79297,5.23828 0,3.44922 0,3.44726 -3.44727,0 -3.44922,0 0,3.44922 0,3.44922 6.89649,0 6.89648,0 0,-6.89844 0,-6.89648 -3.44726,0 -3.44922,0 z m -6.89649,13.79492 -3.44921,0 -3.44727,0 0,6.89649 0,6.89648 3.44727,0 3.44921,0 0,-6.89648 0,-6.89649 z m -96.55078,-8.83984 c -3.12821,2.75846 -6.07941,5.71165 -8.83789,8.83984 l 8.83789,0 0,-8.83984 z m 131.03321,0 0,8.83984 8.83789,0 c -2.75846,-3.12819 -5.70972,-6.08138 -8.83789,-8.83984 z m -110.34375,8.83984 0,6.89649 0,6.89648 3.44726,0 3.44922,0 0,-6.89648 0,-6.89649 -3.44922,0 -3.44726,0 z m 82.75781,6.89649 0,17.24023 0,17.24219 -6.89649,0 -6.89648,0 0,3.44726 0,3.44922 17.24219,0 17.24023,0 0,-3.44922 0,-3.44726 -3.44726,0 -3.44922,0 0,-10.3457 0,-10.34375 -3.44727,0 -3.44922,0 0,-6.89649 0,-6.89648 -3.44726,0 -3.44922,0 z m 20.68945,34.48242 6.89649,0 6.89648,0 0,3.44726 0,3.44922 3.44922,0 3.44726,0 0,-13.79297 0,-13.79296 -3.44726,0 -3.44922,0 0,3.44726 0,3.44922 -3.44727,0 -3.44921,0 0,-3.44922 0,-3.44726 -3.44727,0 -3.44922,0 0,10.34375 0,10.3457 z m 20.68945,6.89648 0,3.44727 0,3.44922 3.44922,0 3.44727,0 0,-3.44922 0,-3.44727 -3.44727,0 -3.44922,0 z m 6.89649,0 3.44922,0 3.44726,0 0,-3.44922 0,-3.44726 -3.44726,0 -3.44922,0 0,3.44726 0,3.44922 z m 0,-27.58593 0,6.89648 0,6.89648 6.89648,0 1.04102,0 c -1.57066,-4.76745 -3.49047,-9.37611 -5.73438,-13.79296 l -2.20312,0 z m -172.41406,20.68945 0,3.44726 0,3.44922 3.44921,0 3.44727,0 0,-3.44922 0,-3.44726 -3.44727,0 -3.44921,0 z m -11.40235,6.89648 c -0.39878,2.27328 -0.71992,4.57269 -0.96094,6.89649 l 2.01954,0 3.44726,0 0,-3.44922 0,-3.44727 -3.44726,0 -1.0586,0 z m 4.50586,6.89649 0,3.44726 0,3.44922 -3.44726,0 -2.49024,0 c -0.0392,1.14479 -0.0644,2.29294 -0.0644,3.44727 0,3.49406 0.18238,6.94495 0.53515,10.3457 l 2.01954,0 3.44726,0 0,-3.44922 0,-3.44726 6.89649,0 6.89648,0 0,-6.89649 0,-6.89648 -6.89648,0 -6.89649,0 z m 186.20703,0 0,3.44726 0,3.44922 3.44922,0 2.48828,0 c -0.0793,-2.31969 -0.23263,-4.61991 -0.46875,-6.89648 l -2.01953,0 -3.44922,0 z m -179.31054,20.68945 0,3.44727 0,3.44921 3.44921,0 3.44727,0 0,-3.44921 0,-3.44727 -3.44727,0 -3.44921,0 z m -11.40235,6.89648 c 1.01552,5.7884 2.53235,11.40484 4.50586,16.80079 l 0,-3.00782 0,-13.79297 -3.44726,0 -1.0586,0 z m 52.78321,0 3.44726,0 3.44922,0 0,6.89649 0,6.89648 6.89648,0 6.89649,0 0,3.44922 0,3.44727 -3.44922,0 -3.44727,0 0,6.89648 0,6.89649 -3.44921,0 -3.44727,0 0,-10.34375 0,-10.34571 -3.44922,0 -3.44726,0 0,-6.89648 0,-6.89649 z m 89.65429,27.58594 10.34571,0 10.34375,0 0,10.34571 0,10.34375 -10.34375,0 -10.34571,0 0,-10.34375 0,-10.34571 z m -129.37695,6.89649 c 1.4509,2.36662 3.00011,4.66655 4.63867,6.89648 l 4.04883,0 17.24219,0 0,17.24219 0,4.04883 c 2.22966,1.63835 4.53016,3.18793 6.89648,4.63867 l 0,-8.6875 0,-24.13867 -24.13867,0 -8.6875,0 z m 136.27344,0 0,3.44922 0,3.44726 3.44922,0 3.44726,0 0,-3.44726 0,-3.44922 -3.44726,0 -3.44922,0 z m -126.07813,13.79297 c 2.75848,3.12823 5.70968,6.07939 8.83789,8.83789 l 0,-8.83789 -8.83789,0 z m 77.80274,27.58593 0,3.44922 0,2.48828 c 4.68714,-0.16036 9.29296,-0.64026 13.79296,-1.42968 l 0,-1.0586 0,-3.44922 -6.89648,0 -6.89648,0 z"
       id="path4155"
       inkscape:connector-curvature="0" />
    <path
       style="fill:#1c2422"
       d="m 356.87537,476.6274 -1.93946,7.28711 0,4.33594 3.44727,0 3.44922,0 0,-10.3457 0,-1.27735 -4.95703,0 z m 4.95703,11.62305 0,3.44727 0,3.44921 3.44726,0 3.44922,0 0,-3.44921 0,-3.44727 -3.44922,0 -3.44726,0 z m 6.89648,0 3.44727,0 3.44922,0 0,-10.3457 0,-1.27735 -6.89649,0 0,1.27735 0,10.3457 z m 0,6.89648 0,3.44727 0,3.44922 6.89649,0 5.15429,0 1.74219,-6.55469 0,-0.3418 -6.89648,0 -6.89649,0 z m 13.79297,0 0.0898,0 1.83204,-6.89648 -1.92188,0 0,3.44727 0,3.44921 z m -20.68945,0 -6.89649,0 -2.98828,0 -3.9082,14.6836 0,2.55664 0,3.44922 3.44726,0 3.44922,0 0,-6.89649 0,-6.89648 3.44727,0 3.44922,0 0,-3.44922 0,-3.44727 z m -6.89649,20.68946 0,3.44726 0,3.44922 3.44727,0 3.44922,0 0,-3.44922 0,-3.44726 -3.44922,0 -3.44727,0 z m 6.89649,0 3.44726,0 3.44922,0 0,3.44726 0,3.44922 3.44727,0 3.44922,0 0,6.89649 0,1.36132 6.89648,-2.51953 0,-2.29101 0,-3.44727 3.44727,0 3.08203,0 0.36718,-1.38086 0,-2.06836 0,-3.44726 -6.89648,0 -1.7207,0 -4.08008,1.49023 0.39648,-1.49023 -1.49218,0 0,-3.44922 0,-3.44727 -6.89649,0 -6.89648,0 0,3.44727 0,3.44922 z m 6.89648,6.89648 -3.44922,0 -3.44726,0 0,3.44727 0,3.44922 3.44726,0 3.44922,0 0,-3.44922 0,-3.44727 z m -6.89648,6.89649 -3.44922,0 -3.44727,0 0,6.89648 0,6.89648 3.44727,0 3.44922,0 0,3.44727 0,3.44922 3.44726,0 2.68164,0 0.76758,-2.89063 0,-0.55859 0,-3.44727 1.06445,0 1.83008,-6.89648 -2.89453,0 -6.89648,0 0,-3.44922 0,-3.44726 z m 0,20.68945 -6.89649,0 -6.89648,0 0,-3.44922 0,-3.44727 -3.44922,0 -3.44727,0 0,-3.44921 0,-3.44727 -3.44921,0 -3.44727,0 0,-3.68164 -3.30859,1.20898 -2.48828,9.36914 2.34765,0 3.44922,0 0,2.6836 4.58594,-1.67383 -3.40235,12.7832 5.71289,0 6.89649,0 0,3.44922 0,3.44727 -3.44922,0 -3.44727,0 0,6.89648 0,4.72656 6.89649,0 0,-4.72656 3.44726,0 3.44922,0 0,-6.89648 0,-6.89649 3.44727,0 3.44922,0 0,-3.44921 0,-3.44727 z m -6.89649,20.68945 0,3.44922 0,1.27734 13.79297,0 0,-1.27734 0,-3.44922 6.89649,0 6.89648,0 0,3.44922 0,1.27734 6.89648,0 0,-1.27734 0,-3.44922 3.44727,0 3.44922,0 0,-3.44726 0,-3.44922 -3.44922,0 -3.44727,0 0,-3.44727 0,-3.44922 -3.44921,0 -3.44727,0 0,3.44922 0,3.44727 -3.44922,0 -3.44726,0 0,-3.44727 0,-3.44922 3.44726,0 3.44922,0 0,-0.96289 -13.79297,0 0,0.96289 0,6.89649 -3.44922,0 -3.44726,0 0,3.44922 0,3.44726 -3.44922,0 -3.44727,0 z m 41.37891,0 0,3.44922 0,1.27734 6.89648,0 0,-1.27734 0,-3.44922 -3.44921,0 -3.44727,0 z m -55.17188,-34.48242 3.44727,0 3.44922,0 0,-3.44922 0,-3.44726 -3.44922,0 -1.82031,0 -0.0293,0.11328 -1.59766,0.58398 0,2.75 0,3.44922 z m 6.89649,-20.68945 -1.59766,0 -1.83594,6.89648 3.4336,0 0,-3.44922 0,-3.44726 z m -20.68945,31.72656 -0.3125,1.17578 0.3125,-0.11328 0,-1.0625 z m 68.96484,8.68945 0,0.96289 3.44727,0 3.44921,0 0,-0.96289 -6.89648,0 z m 6.89648,0.96289 0,3.44922 0,3.44727 3.44727,0 3.44922,0 0,6.89648 0,4.72656 1.97656,0 4.97266,-18.51953 -0.0527,0 0,-0.96289 -6.89648,0 0,0.96289 -3.44922,0 -3.44727,0 z m -68.96484,4.44532 -3.74609,14.07421 3.74609,0 0,-8.17382 0,-5.90039 z"
       id="path4161"
       inkscape:connector-curvature="0" />
  </g>
</svg>
