<?xml version="1.0" encoding="UTF-8" standalone="no"?>
<!-- Created with Inkscape (http://www.inkscape.org/) -->

<svg
   xmlns:dc="http://purl.org/dc/elements/1.1/"
   xmlns:cc="http://creativecommons.org/ns#"
   xmlns:rdf="http://www.w3.org/1999/02/22-rdf-syntax-ns#"
   xmlns:svg="http://www.w3.org/2000/svg"
   xmlns="http://www.w3.org/2000/svg"
   xmlns:sodipodi="http://sodipodi.sourceforge.net/DTD/sodipodi-0.dtd"
   xmlns:inkscape="http://www.inkscape.org/namespaces/inkscape"
   width="220mm"
   height="220mm"
   viewBox="0 0 779.52756 779.52755"
   id="svg2"
   version="1.1"
   inkscape:version="0.91 r13725"
   sodipodi:docname="eight.svg"
   inkscape:export-filename="E:\User files\Desktop\Markor\eight.png"
   inkscape:export-xdpi="23.187469"
   inkscape:export-ydpi="23.187469">
  <defs
     id="defs4">
    <inkscape:path-effect
       effect="powerstroke"
       id="path-effect4277"
       is_visible="true"
       offset_points="0,0.5"
       sort_points="true"
       interpolator_type="Linear"
       interpolator_beta="0.2"
       start_linecap_type="zerowidth"
       linejoin_type="round"
       miter_limit="4"
       end_linecap_type="zerowidth"
       cusp_linecap_type="round" />
  </defs>
  <sodipodi:namedview
     id="base"
     pagecolor="#ffffff"
     bordercolor="#666666"
     borderopacity="1.0"
     inkscape:pageopacity="0.0"
     inkscape:pageshadow="2"
     inkscape:zoom="0.35000001"
     inkscape:cx="493.42458"
     inkscape:cy="553.9571"
     inkscape:document-units="px"
     inkscape:current-layer="layer1"
     showgrid="false"
     showguides="false"
     inkscape:window-width="1170"
     inkscape:window-height="626"
     inkscape:window-x="4091"
     inkscape:window-y="372"
     inkscape:window-maximized="0"
     fit-margin-top="0"
     fit-margin-left="0"
     fit-margin-right="0"
     fit-margin-bottom="0">
    <inkscape:grid
       type="xygrid"
       id="grid4281"
       originx="33.809973"
       originy="33.809979" />
  </sodipodi:namedview>
  <metadata
     id="metadata7">
    <rdf:RDF>
      <cc:Work
         rdf:about="">
        <dc:format>image/svg+xml</dc:format>
        <dc:type
           rdf:resource="http://purl.org/dc/dcmitype/StillImage" />
        <dc:title></dc:title>
      </cc:Work>
    </rdf:RDF>
  </metadata>
  <g
     inkscape:label="Layer 1"
     inkscape:groupmode="layer"
     id="layer1"
     transform="translate(33.809972,-306.64464)">
    <circle
       style="opacity:1;fill:#dbe2e3;fill-opacity:1;stroke:#d7eef4;stroke-width:0;stroke-linecap:round;stroke-linejoin:round;stroke-miterlimit:4;stroke-dasharray:none;stroke-dashoffset:0;stroke-opacity:1"
       id="path4140"
       cx="355.9538"
       cy="696.40839"
       r="345.71429" />
    <path
       style="opacity:1;fill:#214478;fill-opacity:1;stroke:#d7eef4;stroke-width:0;stroke-linecap:round;stroke-linejoin:round;stroke-miterlimit:4;stroke-dasharray:none;stroke-dashoffset:0;stroke-opacity:1"
       d="M 355.9537,308.26766 A 388.14069,388.14069 0 0 0 -32.186925,696.40828 388.14069,388.14069 0 0 0 355.9537,1084.5489 388.14069,388.14069 0 0 0 744.09433,696.40828 388.14069,388.14069 0 0 0 355.9537,308.26766 Z m 0,42.42578 A 345.71429,345.71429 0 0 1 701.66855,696.40828 345.71429,345.71429 0 0 1 355.9537,1042.1231 345.71429,345.71429 0 0 1 10.238856,696.40828 345.71429,345.71429 0 0 1 355.9537,350.69344 Z"
       id="circle4256"
       inkscape:connector-curvature="0" />
    <g
       id="g4326"
       transform="matrix(0.96592583,-0.25881905,0.25881905,0.96592583,-164.70821,115.40866)">
      <g
         id="g4251">
        <rect
           style="opacity:1;fill:#f9f9f9;fill-opacity:1;stroke:#d7eef4;stroke-width:0;stroke-linecap:round;stroke-linejoin:round;stroke-miterlimit:4;stroke-dasharray:none;stroke-dashoffset:0;stroke-opacity:1"
           id="rect4202"
           width="428.30466"
           height="551.54327"
           x="141.80148"
           y="420.63675"
           ry="22.223356"
           rx="22.223356" />
        <g
           id="g4223"
           style="opacity:0.97000002"
           transform="translate(-19.035756,0)">
          <rect
             rx="17.172592"
             ry="11.111662"
             y="394.31174"
             x="183.37282"
             height="49.200371"
             width="23.233507"
             id="rect4209"
             style="opacity:1;fill:#decd87;fill-opacity:1;stroke:#d7eef4;stroke-width:0;stroke-linecap:round;stroke-linejoin:round;stroke-miterlimit:4;stroke-dasharray:none;stroke-dashoffset:0;stroke-opacity:1" />
          <rect
             style="opacity:1;fill:#decd87;fill-opacity:1;stroke:#d7eef4;stroke-width:0;stroke-linecap:round;stroke-linejoin:round;stroke-miterlimit:4;stroke-dasharray:none;stroke-dashoffset:0;stroke-opacity:1"
             id="rect4211"
             width="23.233507"
             height="49.200371"
             x="243.37282"
             y="394.31174"
             ry="11.111662"
             rx="17.172592" />
          <rect
             rx="17.172592"
             ry="11.111662"
             y="394.31174"
             x="303.3728"
             height="49.200371"
             width="23.233507"
             id="rect4213"
             style="opacity:1;fill:#decd87;fill-opacity:1;stroke:#d7eef4;stroke-width:0;stroke-linecap:round;stroke-linejoin:round;stroke-miterlimit:4;stroke-dasharray:none;stroke-dashoffset:0;stroke-opacity:1" />
          <rect
             style="opacity:1;fill:#decd87;fill-opacity:1;stroke:#d7eef4;stroke-width:0;stroke-linecap:round;stroke-linejoin:round;stroke-miterlimit:4;stroke-dasharray:none;stroke-dashoffset:0;stroke-opacity:1"
             id="rect4215"
             width="23.233507"
             height="49.200371"
             x="363.3728"
             y="394.31174"
             ry="11.111662"
             rx="17.172592" />
          <rect
             rx="17.172592"
             ry="11.111662"
             y="394.31174"
             x="423.3728"
             height="49.200371"
             width="23.233507"
             id="rect4217"
             style="opacity:1;fill:#decd87;fill-opacity:1;stroke:#d7eef4;stroke-width:0;stroke-linecap:round;stroke-linejoin:round;stroke-miterlimit:4;stroke-dasharray:none;stroke-dashoffset:0;stroke-opacity:1" />
          <rect
             style="opacity:1;fill:#decd87;fill-opacity:1;stroke:#d7eef4;stroke-width:0;stroke-linecap:round;stroke-linejoin:round;stroke-miterlimit:4;stroke-dasharray:none;stroke-dashoffset:0;stroke-opacity:1"
             id="rect4219"
             width="23.233507"
             height="49.200371"
             x="483.3728"
             y="394.31174"
             ry="11.111662"
             rx="17.172592" />
          <rect
             rx="17.172592"
             ry="11.111662"
             y="394.31174"
             x="543.3728"
             height="49.200371"
             width="23.233507"
             id="rect4221"
             style="opacity:1;fill:#decd87;fill-opacity:1;stroke:#d7eef4;stroke-width:0;stroke-linecap:round;stroke-linejoin:round;stroke-miterlimit:4;stroke-dasharray:none;stroke-dashoffset:0;stroke-opacity:1" />
        </g>
      </g>
      <rect
         style="opacity:1;fill:#4d4d4d;fill-opacity:1;stroke:#d7eef4;stroke-width:0;stroke-linecap:round;stroke-linejoin:round;stroke-miterlimit:4;stroke-dasharray:none;stroke-dashoffset:0;stroke-opacity:1"
         id="rect4189"
         width="243.46642"
         height="13.662961"
         x="161.53815"
         y="473.55368" />
      <rect
         y="499.61478"
         x="161.53815"
         height="7.6020465"
         width="382.86743"
         id="rect4191"
         style="opacity:1;fill:#999999;fill-opacity:1;stroke:#d7eef4;stroke-width:0;stroke-linecap:round;stroke-linejoin:round;stroke-miterlimit:4;stroke-dasharray:none;stroke-dashoffset:0;stroke-opacity:1" />
      <rect
         style="opacity:1;fill:#1a1a1a;fill-opacity:1;stroke:#d7eef4;stroke-width:0;stroke-linecap:round;stroke-linejoin:round;stroke-miterlimit:4;stroke-dasharray:none;stroke-dashoffset:0;stroke-opacity:1"
         id="rect4193"
         width="12.552676"
         height="7.6020465"
         x="191.53818"
         y="519.61475" />
      <rect
         y="519.61475"
         x="231.53812"
         height="7.6020465"
         width="121.12411"
         id="rect4195"
         style="opacity:1;fill:#808080;fill-opacity:1;stroke:#d7eef4;stroke-width:0;stroke-linecap:round;stroke-linejoin:round;stroke-miterlimit:4;stroke-dasharray:none;stroke-dashoffset:0;stroke-opacity:1" />
      <rect
         y="539.61475"
         x="191.53818"
         height="7.6020465"
         width="12.552676"
         id="rect4197"
         style="opacity:1;fill:#1a1a1a;fill-opacity:1;stroke:#d7eef4;stroke-width:0;stroke-linecap:round;stroke-linejoin:round;stroke-miterlimit:4;stroke-dasharray:none;stroke-dashoffset:0;stroke-opacity:1" />
      <rect
         style="opacity:1;fill:#808080;fill-opacity:1;stroke:#d7eef4;stroke-width:0;stroke-linecap:round;stroke-linejoin:round;stroke-miterlimit:4;stroke-dasharray:none;stroke-dashoffset:0;stroke-opacity:1"
         id="rect4199"
         width="308.26697"
         height="7.6020465"
         x="231.53812"
         y="539.61475" />
      <rect
         style="opacity:1;fill:#1a1a1a;fill-opacity:1;stroke:#d7eef4;stroke-width:0;stroke-linecap:round;stroke-linejoin:round;stroke-miterlimit:4;stroke-dasharray:none;stroke-dashoffset:0;stroke-opacity:1"
         id="rect4201"
         width="12.552676"
         height="7.6020465"
         x="191.53818"
         y="559.61475" />
      <rect
         y="559.61475"
         x="231.53812"
         height="7.6020465"
         width="291.12411"
         id="rect4203"
         style="opacity:1;fill:#808080;fill-opacity:1;stroke:#d7eef4;stroke-width:0;stroke-linecap:round;stroke-linejoin:round;stroke-miterlimit:4;stroke-dasharray:none;stroke-dashoffset:0;stroke-opacity:1" />
      <rect
         y="579.61475"
         x="191.53818"
         height="7.6020465"
         width="12.552676"
         id="rect4205"
         style="opacity:1;fill:#1a1a1a;fill-opacity:1;stroke:#d7eef4;stroke-width:0;stroke-linecap:round;stroke-linejoin:round;stroke-miterlimit:4;stroke-dasharray:none;stroke-dashoffset:0;stroke-opacity:1" />
      <rect
         style="opacity:1;fill:#808080;fill-opacity:1;stroke:#d7eef4;stroke-width:0;stroke-linecap:round;stroke-linejoin:round;stroke-miterlimit:4;stroke-dasharray:none;stroke-dashoffset:0;stroke-opacity:1"
         id="rect4207"
         width="331.12411"
         height="7.6020465"
         x="231.53812"
         y="579.61475" />
      <rect
         style="opacity:1;fill:#1a1a1a;fill-opacity:1;stroke:#d7eef4;stroke-width:0;stroke-linecap:round;stroke-linejoin:round;stroke-miterlimit:4;stroke-dasharray:none;stroke-dashoffset:0;stroke-opacity:1"
         id="rect4209-0"
         width="12.552676"
         height="7.6020465"
         x="191.53818"
         y="599.61475" />
      <rect
         y="599.61475"
         x="231.53812"
         height="7.6020465"
         width="252.55269"
         id="rect4211-5"
         style="opacity:1;fill:#808080;fill-opacity:1;stroke:#d7eef4;stroke-width:0;stroke-linecap:round;stroke-linejoin:round;stroke-miterlimit:4;stroke-dasharray:none;stroke-dashoffset:0;stroke-opacity:1" />
      <rect
         y="634.91296"
         x="161.36557"
         height="7.6020465"
         width="397.00955"
         id="rect4204"
         style="opacity:1;fill:#999999;fill-opacity:1;stroke:#d7eef4;stroke-width:0;stroke-linecap:round;stroke-linejoin:round;stroke-miterlimit:4;stroke-dasharray:none;stroke-dashoffset:0;stroke-opacity:1" />
      <rect
         style="opacity:1;fill:#999999;fill-opacity:1;stroke:#d7eef4;stroke-width:0;stroke-linecap:round;stroke-linejoin:round;stroke-miterlimit:4;stroke-dasharray:none;stroke-dashoffset:0;stroke-opacity:1"
         id="rect4206"
         width="362.6644"
         height="7.6020465"
         x="161.36557"
         y="653.72705" />
      <rect
         y="672.54095"
         x="161.36557"
         height="7.6020465"
         width="166.4397"
         id="rect4208"
         style="opacity:1;fill:#999999;fill-opacity:1;stroke:#d7eef4;stroke-width:0;stroke-linecap:round;stroke-linejoin:round;stroke-miterlimit:4;stroke-dasharray:none;stroke-dashoffset:0;stroke-opacity:1" />
      <rect
         style="opacity:1;fill:#999999;fill-opacity:1;stroke:#d7eef4;stroke-width:0;stroke-linecap:round;stroke-linejoin:round;stroke-miterlimit:4;stroke-dasharray:none;stroke-dashoffset:0;stroke-opacity:1"
         id="rect4229"
         width="388.92834"
         height="7.6020465"
         x="161.53815"
         y="699.61475" />
      <rect
         y="733.55365"
         x="161.53815"
         height="13.662961"
         width="91.943535"
         id="rect4262"
         style="opacity:1;fill:#4d4d4d;fill-opacity:1;stroke:#d7eef4;stroke-width:0;stroke-linecap:round;stroke-linejoin:round;stroke-miterlimit:4;stroke-dasharray:none;stroke-dashoffset:0;stroke-opacity:1" />
      <rect
         style="opacity:1;fill:#4d4d4d;fill-opacity:1;stroke:#d7eef4;stroke-width:0;stroke-linecap:round;stroke-linejoin:round;stroke-miterlimit:4;stroke-dasharray:none;stroke-dashoffset:0;stroke-opacity:1"
         id="rect4264"
         width="91.943535"
         height="13.662961"
         x="281.53815"
         y="733.55365" />
      <rect
         y="733.55365"
         x="401.53815"
         height="13.662961"
         width="91.943535"
         id="rect4266"
         style="opacity:1;fill:#4d4d4d;fill-opacity:1;stroke:#d7eef4;stroke-width:0;stroke-linecap:round;stroke-linejoin:round;stroke-miterlimit:4;stroke-dasharray:none;stroke-dashoffset:0;stroke-opacity:1" />
      <rect
         style="opacity:1;fill:#808080;fill-opacity:1;stroke:#d7eef4;stroke-width:0;stroke-linecap:round;stroke-linejoin:round;stroke-miterlimit:4;stroke-dasharray:none;stroke-dashoffset:0;stroke-opacity:1"
         id="rect4268"
         width="91.481247"
         height="7.6020465"
         x="161.53812"
         y="759.61475" />
      <rect
         y="779.61475"
         x="161.53812"
         height="7.6020465"
         width="84.695534"
         id="rect4270"
         style="opacity:1;fill:#808080;fill-opacity:1;stroke:#d7eef4;stroke-width:0;stroke-linecap:round;stroke-linejoin:round;stroke-miterlimit:4;stroke-dasharray:none;stroke-dashoffset:0;stroke-opacity:1" />
      <rect
         style="opacity:1;fill:#808080;fill-opacity:1;stroke:#d7eef4;stroke-width:0;stroke-linecap:round;stroke-linejoin:round;stroke-miterlimit:4;stroke-dasharray:none;stroke-dashoffset:0;stroke-opacity:1"
         id="rect4272"
         width="91.481247"
         height="7.6020465"
         x="161.53812"
         y="799.61475" />
      <rect
         y="819.61475"
         x="161.53812"
         height="7.6020465"
         width="75.76696"
         id="rect4274"
         style="opacity:1;fill:#808080;fill-opacity:1;stroke:#d7eef4;stroke-width:0;stroke-linecap:round;stroke-linejoin:round;stroke-miterlimit:4;stroke-dasharray:none;stroke-dashoffset:0;stroke-opacity:1" />
      <rect
         y="759.61475"
         x="281.53812"
         height="7.6020465"
         width="52.909821"
         id="rect4276"
         style="opacity:1;fill:#808080;fill-opacity:1;stroke:#d7eef4;stroke-width:0;stroke-linecap:round;stroke-linejoin:round;stroke-miterlimit:4;stroke-dasharray:none;stroke-dashoffset:0;stroke-opacity:1" />
      <rect
         style="opacity:1;fill:#808080;fill-opacity:1;stroke:#d7eef4;stroke-width:0;stroke-linecap:round;stroke-linejoin:round;stroke-miterlimit:4;stroke-dasharray:none;stroke-dashoffset:0;stroke-opacity:1"
         id="rect4278"
         width="92.552681"
         height="7.6020465"
         x="281.53812"
         y="779.61475" />
      <rect
         y="799.61475"
         x="281.53812"
         height="7.6020465"
         width="80.052673"
         id="rect4280"
         style="opacity:1;fill:#808080;fill-opacity:1;stroke:#d7eef4;stroke-width:0;stroke-linecap:round;stroke-linejoin:round;stroke-miterlimit:4;stroke-dasharray:none;stroke-dashoffset:0;stroke-opacity:1" />
      <rect
         style="opacity:1;fill:#808080;fill-opacity:1;stroke:#d7eef4;stroke-width:0;stroke-linecap:round;stroke-linejoin:round;stroke-miterlimit:4;stroke-dasharray:none;stroke-dashoffset:0;stroke-opacity:1"
         id="rect4282"
         width="87.195534"
         height="7.6020465"
         x="281.53812"
         y="819.61475" />
      <rect
         style="opacity:1;fill:#808080;fill-opacity:1;stroke:#d7eef4;stroke-width:0;stroke-linecap:round;stroke-linejoin:round;stroke-miterlimit:4;stroke-dasharray:none;stroke-dashoffset:0;stroke-opacity:1"
         id="rect4284"
         width="84.338387"
         height="7.6020465"
         x="401.53815"
         y="759.61475" />
      <rect
         y="779.61475"
         x="401.53815"
         height="7.6020465"
         width="62.552677"
         id="rect4286"
         style="opacity:1;fill:#808080;fill-opacity:1;stroke:#d7eef4;stroke-width:0;stroke-linecap:round;stroke-linejoin:round;stroke-miterlimit:4;stroke-dasharray:none;stroke-dashoffset:0;stroke-opacity:1" />
      <rect
         style="opacity:1;fill:#808080;fill-opacity:1;stroke:#d7eef4;stroke-width:0;stroke-linecap:round;stroke-linejoin:round;stroke-miterlimit:4;stroke-dasharray:none;stroke-dashoffset:0;stroke-opacity:1"
         id="rect4288"
         width="76.481247"
         height="7.6020465"
         x="401.53815"
         y="799.61475" />
    </g>
    <path
       style="opacity:0.97000002;fill:#000000;fill-opacity:0.19607843;stroke:#d7eef4;stroke-width:0;stroke-linecap:round;stroke-linejoin:round;stroke-miterlimit:4;stroke-dasharray:none;stroke-dashoffset:0;stroke-opacity:1"
       d="M 278.93164 716.87305 A 345.71429 345.71429 0 0 0 287.59766 720.03711 A 345.71429 345.71429 0 0 0 321.08008 728.58789 A 345.71429 345.71429 0 0 0 355.25 733.75195 A 345.71429 345.71429 0 0 0 389.76367 735.47852 A 345.71429 345.71429 0 0 0 414.21875 734.61328 A 345.71429 345.71429 0 0 0 448.52539 730.44727 A 345.71429 345.71429 0 0 0 482.24219 722.88086 A 345.71429 345.71429 0 0 0 515.03711 711.98242 A 345.71429 345.71429 0 0 0 546.58008 697.86719 A 345.71429 345.71429 0 0 0 576.55469 680.67188 A 345.71429 345.71429 0 0 0 604.66406 660.57031 A 345.71429 345.71429 0 0 0 630.62695 637.76367 A 345.71429 345.71429 0 0 0 654.18164 612.47852 A 345.71429 345.71429 0 0 0 675.0957 584.96875 A 345.71429 345.71429 0 0 0 693.1582 555.50781 A 345.71429 345.71429 0 0 0 708.1875 524.39062 A 345.71429 345.71429 0 0 0 720.03711 491.92969 A 345.71429 345.71429 0 0 0 728.58789 458.44727 A 345.71429 345.71429 0 0 0 733.75195 424.27734 A 345.71429 345.71429 0 0 0 735.47852 389.76367 A 345.71429 345.71429 0 0 0 734.61328 365.30859 A 345.71429 345.71429 0 0 0 730.44727 331.00195 A 345.71429 345.71429 0 0 0 722.88086 297.28516 A 345.71429 345.71429 0 0 0 712.68945 266.61719 L 534.00781 87.935547 C 534.12328 88.293999 534.30375 88.612508 534.40234 88.980469 L 665.64844 578.79688 C 666.04675 580.2834 666.28686 581.77372 666.37695 583.25 C 666.46704 584.72628 666.40832 586.18905 666.21094 587.61914 C 666.01355 589.04923 665.677 590.44695 665.21289 591.79492 C 664.74878 593.14289 664.1554 594.44196 663.44531 595.67188 C 662.73522 596.90179 661.90798 598.06276 660.97266 599.13867 C 660.03734 600.21459 658.99527 601.20386 657.85547 602.08984 C 656.71566 602.97583 655.47784 603.75785 654.1543 604.41797 C 652.83076 605.07809 651.42208 605.61731 649.93555 606.01562 L 279.15625 705.36523 C 277.66972 705.76355 276.1794 706.00171 274.70312 706.0918 C 273.22686 706.18189 271.76408 706.12316 270.33398 705.92578 C 269.27712 705.77991 268.26262 705.48247 267.24805 705.18945 L 278.93164 716.87305 z "
       id="path4516"
       transform="translate(-33.809972,306.64461)" />
    <path
       style="opacity:0.97000002;fill:#000000;fill-opacity:0.19607843;stroke:#d7eef4;stroke-width:0;stroke-linecap:round;stroke-linejoin:round;stroke-miterlimit:4;stroke-dasharray:none;stroke-dashoffset:0;stroke-opacity:1"
       d="M 512.08984 66.017578 L 503.98438 74.123047 L 507.18555 73.265625 C 508.67208 72.867311 510.16239 72.627201 511.63867 72.537109 C 513.11495 72.447018 514.57577 72.507695 516.00586 72.705078 C 517.25273 72.877173 518.46029 73.198354 519.64648 73.574219 L 512.08984 66.017578 z "
       id="rect4368"
       transform="translate(-33.809972,306.64461)" />
    <g
       id="g4245"
       transform="translate(-120,0)">
      <path
         inkscape:connector-curvature="0"
         id="path4273"
         d="m 616.77633,465.97317 -226.47742,392.27041 46.48703,26.8393 226.47743,-392.2704 z"
         style="fill:#ffdd55;fill-rule:evenodd;stroke:none;stroke-width:1px;stroke-linecap:butt;stroke-linejoin:miter;stroke-opacity:1" />
      <path
         sodipodi:nodetypes="cccc"
         style="fill:#333333;fill-rule:evenodd;stroke:none;stroke-width:1px;stroke-linecap:butt;stroke-linejoin:miter;stroke-opacity:1"
         d="m 390.35019,858.15475 c -8.27401,68.0096 0,0 -8.27401,68.0096 54.76105,-41.1703 0,0 54.76105,-41.1703 z"
         id="path4279"
         inkscape:connector-curvature="0" />
      <path
         style="fill:#000000;fill-opacity:0.09803922;fill-rule:evenodd;stroke:none;stroke-width:1px;stroke-linecap:butt;stroke-linejoin:miter;stroke-opacity:1"
         d="M 646.55281,484.72203 422.13239,873.4296 435.65088,881.23451 660.0713,492.52693 Z"
         id="path4284"
         inkscape:connector-curvature="0" />
      <path
         inkscape:connector-curvature="0"
         id="path4192"
         d="m 393.98541,862.93332 -3.28348,26.98896 -3.28346,26.98896 15.18082,-48.21425 z"
         style="fill:#ffffff;fill-opacity:0.58823529;fill-rule:evenodd;stroke:none;stroke-width:1px;stroke-linecap:butt;stroke-linejoin:miter;stroke-opacity:1"
         sodipodi:nodetypes="ccccc" />
    </g>
  </g>
</svg>
